<svg xmlns="http://www.w3.org/2000/svg" version="1.1" xmlns:xlink="http://www.w3.org/1999/xlink" xmlns:svgjs="http://svgjs.dev/svgjs" width="2000" height="1500" viewBox="0 0 2000 1500"><rect width="2000" height="1500" fill="#d1e7dd"></rect><g transform="matrix(0.3563791874554526,0,0,0.3563791874554526,644.1128588090455,250.40485829959516)"><svg viewBox="0 0 176 247" data-background-color="#d1e7dd" preserveAspectRatio="xMidYMid meet" height="2806" width="2000" xmlns="http://www.w3.org/2000/svg" xmlns:xlink="http://www.w3.org/1999/xlink"><g id="tight-bounds" transform="matrix(1,0,0,1,-0.1214999999999975,-0.09999999999999432)"><svg viewBox="0 0 176.2428532672581 247.2" height="247.2" width="176.2428532672581"><g><svg></svg></g><g><svg viewBox="0 0 176.2428532672581 247.2" height="247.2" width="176.2428532672581"><g transform="matrix(1,0,0,1,0,47.215199999999996)"><svg viewBox="0 0 176.2428532672581 152.7696" height="152.7696" width="176.2428532672581"><g><svg viewBox="0 0 245.65351679999995 212.93566691876288" height="152.7696" width="176.2428532672581"><g transform="matrix(1,0,0,1,0,156.8487840446187)"><svg viewBox="0 0 245.65351679999995 56.08688287414419" height="56.08688287414419" width="245.65351679999995"><g id="textblocktransform"><svg viewBox="0 0 245.65351679999995 56.08688287414419" height="56.08688287414419" width="245.65351679999995" id="textblock"><g><rect width="245.65351679999995" height="2.7032671182568686" x="0" y="33.16048254971392" fill="#009b7d" opacity="1" stroke-width="0" stroke="transparent" fill-opacity="1" class="rect-qz-0" data-fill-palette-color="primary" rx="1%" id="qz-0" data-palette-color="#009b7d"></rect></g><g transform="matrix(1,0,0,1,0.6110783999999825,0)"><svg viewBox="0 0 244.43135999999998 29.976005577945354" height="29.976005577945354" width="244.43135999999998"><g transform="matrix(1,0,0,1,0,0)"><svg width="244.43135999999998" viewBox="2.45 -37.5 404.40000000000003 49.6" height="29.976005577945354" data-palette-color="#009b7d"><path d="M13.7-25.25Q17.45-25.25 19.45-22.6 21.45-19.95 21.45-15.45L21.45-15.45 21.45 0 16.05 0 16.05-14.75Q16.05-20.7 12.25-20.7L12.25-20.7Q9.55-20.7 7.85-18.05L7.85-18.05 7.85 0 2.45 0 2.45-37.5 7.85-37.5 7.85-23.05Q10.15-25.25 13.7-25.25L13.7-25.25ZM36.65 0.5Q32.9 0.5 30.25-1.25 27.6-3 26.27-5.95 24.95-8.9 24.95-12.5L24.95-12.5Q24.95-16.1 26.2-19 27.45-21.9 29.82-23.58 32.2-25.25 35.55-25.25L35.55-25.25Q39.75-25.25 42.25-22.33 44.75-19.4 44.75-14.45L44.75-14.45Q44.75-13.2 44.5-11.55L44.5-11.55 30.5-11.55Q30.8-7.8 32.6-5.93 34.4-4.05 37.15-4.05L37.15-4.05Q40.45-4.05 43.55-5.85L43.55-5.85 43.8-1.1Q40.85 0.5 36.65 0.5L36.65 0.5ZM30.65-15.35L39.25-15.35Q39.25-17.8 38.3-19.25 37.35-20.7 35.3-20.7L35.3-20.7Q33.4-20.7 32.2-19.35 31-18 30.65-15.35L30.65-15.35ZM53.3 0.5Q50.5 0.5 48.6-1.4 46.7-3.3 46.7-6.5L46.7-6.5Q46.7-9.85 48.72-11.9 50.75-13.95 53.5-14.8 56.25-15.65 58.75-15.75L58.75-15.75Q58.75-18.25 57.9-19.33 57.05-20.4 55-20.4L55-20.4Q53.5-20.4 52.1-19.9 50.7-19.4 49-18.4L49-18.4 48.55-22.95Q52.3-25.25 56.35-25.25L56.35-25.25Q64.25-25.25 64.25-15.9L64.25-15.9 64.25-8.45Q64.25-6.55 64.4-5.65 64.55-4.75 64.92-4.4 65.3-4.05 66.09-4.05L66.09-4.05 66.8-4.05 66.34 0.5 64.3 0.5Q62.59 0.5 61.37-0.33 60.15-1.15 59.5-2.65L59.5-2.65Q58.2-1.1 56.7-0.3 55.2 0.5 53.3 0.5L53.3 0.5ZM55.05-3.85Q57.15-3.85 58.8-6.2L58.8-6.2 58.8-11.95Q52.4-11.3 52.4-7L52.4-7Q52.4-3.85 55.05-3.85L55.05-3.85ZM75.19 0.5Q72.44 0.5 71.07-1.23 69.69-2.95 69.69-5.8L69.69-5.8 69.69-37.5 75.14-37.5 75.14-8.05Q75.14-6.35 75.32-5.53 75.49-4.7 76.02-4.38 76.54-4.05 77.69-4.05L77.69-4.05 77.19 0.5 75.19 0.5ZM87.99 0.5Q85.14 0.5 83.67-1.18 82.19-2.85 82.19-5.8L82.19-5.8 82.19-20.3 79.14-20.3 79.64-24.8 82.19-24.8 82.19-30.5 87.59-31.1 87.59-24.8 92.29-24.8 92.29-20.3 87.59-20.3 87.59-7.4Q87.59-5.65 88.29-4.85 88.99-4.05 90.59-4.05L90.59-4.05 92.29-4.05 91.79 0.5 87.99 0.5ZM106.99-25.25Q110.74-25.25 112.74-22.6 114.74-19.95 114.74-15.45L114.74-15.45 114.74 0 109.34 0 109.34-14.75Q109.34-20.7 105.54-20.7L105.54-20.7Q102.84-20.7 101.14-18.05L101.14-18.05 101.14 0 95.74 0 95.74-37.5 101.14-37.5 101.14-23.05Q103.44-25.25 106.99-25.25L106.99-25.25ZM120.29 12.1L125.34-1.15 116.69-24.8 122.34-24.8 128.09-7.4 133.64-24.8 139.34-24.8 125.84 12.1 120.29 12.1ZM153.13 0L153.13-20.3 150.08-20.3 150.58-24.8 153.13-24.8 153.13-30.55Q153.13-33.7 154.86-35.6 156.58-37.5 159.93-37.5L159.93-37.5Q161.78-37.5 163.18-37L163.18-37 162.68-32.45Q161.78-32.75 161.08-32.75L161.08-32.75Q159.88-32.75 159.21-31.95 158.53-31.15 158.53-29.75L158.53-29.75 158.53-24.8 163.23-24.8 163.23-20.3 158.53-20.3 158.53 0 153.13 0ZM175.88 0.5Q172.53 0.5 170.05-1.23 167.58-2.95 166.28-5.9 164.98-8.85 164.98-12.4L164.98-12.4Q164.98-15.95 166.28-18.88 167.58-21.8 170.05-23.53 172.53-25.25 175.88-25.25L175.88-25.25Q179.23-25.25 181.7-23.53 184.18-21.8 185.48-18.88 186.78-15.95 186.78-12.4L186.78-12.4Q186.78-8.85 185.48-5.9 184.18-2.95 181.7-1.23 179.23 0.5 175.88 0.5L175.88 0.5ZM175.88-4.05Q178.43-4.05 179.85-6.3 181.28-8.55 181.28-12.4L181.28-12.4Q181.28-16.2 179.85-18.45 178.43-20.7 175.88-20.7L175.88-20.7Q173.38-20.7 171.93-18.45 170.48-16.2 170.48-12.4L170.48-12.4Q170.48-8.55 171.9-6.3 173.33-4.05 175.88-4.05L175.88-4.05ZM200.08 0.5Q196.73 0.5 194.25-1.23 191.78-2.95 190.48-5.9 189.18-8.85 189.18-12.4L189.18-12.4Q189.18-15.95 190.48-18.88 191.78-21.8 194.25-23.53 196.73-25.25 200.08-25.25L200.08-25.25Q203.43-25.25 205.9-23.53 208.38-21.8 209.68-18.88 210.98-15.95 210.98-12.4L210.98-12.4Q210.98-8.85 209.68-5.9 208.38-2.95 205.9-1.23 203.43 0.5 200.08 0.5L200.08 0.5ZM200.08-4.05Q202.63-4.05 204.05-6.3 205.48-8.55 205.48-12.4L205.48-12.4Q205.48-16.2 204.05-18.45 202.63-20.7 200.08-20.7L200.08-20.7Q197.58-20.7 196.13-18.45 194.68-16.2 194.68-12.4L194.68-12.4Q194.68-8.55 196.1-6.3 197.53-4.05 200.08-4.05L200.08-4.05ZM228.77-37.5L234.22-37.5 234.22 0 229.22 0 229.02-1.85Q226.57 0.5 223.07 0.5L223.07 0.5Q220.07 0.5 217.82-1.23 215.57-2.95 214.37-5.88 213.17-8.8 213.17-12.35L213.17-12.35Q213.17-15.9 214.35-18.82 215.52-21.75 217.77-23.5 220.02-25.25 223.07-25.25L223.07-25.25Q226.37-25.25 228.77-23.1L228.77-23.1 228.77-37.5ZM223.82-4.05Q226.37-4.05 227.75-6.23 229.12-8.4 229.12-12.35L229.12-12.35Q229.12-16.3 227.75-18.5 226.37-20.7 223.82-20.7L223.82-20.7Q221.47-20.7 220.07-18.38 218.67-16.05 218.67-12.35L218.67-12.35Q218.67-8.7 220.07-6.38 221.47-4.05 223.82-4.05L223.82-4.05ZM253.87 0.5Q251.07 0.5 249.17-1.4 247.27-3.3 247.27-6.5L247.27-6.5Q247.27-9.85 249.29-11.9 251.32-13.95 254.07-14.8 256.82-15.65 259.32-15.75L259.32-15.75Q259.32-18.25 258.47-19.33 257.62-20.4 255.57-20.4L255.57-20.4Q254.07-20.4 252.67-19.9 251.27-19.4 249.57-18.4L249.57-18.4 249.12-22.95Q252.87-25.25 256.92-25.25L256.92-25.25Q264.82-25.25 264.82-15.9L264.82-15.9 264.82-8.45Q264.82-6.55 264.97-5.65 265.12-4.75 265.49-4.4 265.87-4.05 266.67-4.05L266.67-4.05 267.37-4.05 266.92 0.5 264.87 0.5Q263.17 0.5 261.94-0.33 260.72-1.15 260.07-2.65L260.07-2.65Q258.77-1.1 257.27-0.3 255.77 0.5 253.87 0.5L253.87 0.5ZM255.62-3.85Q257.72-3.85 259.37-6.2L259.37-6.2 259.37-11.95Q252.97-11.3 252.97-7L252.97-7Q252.97-3.85 255.62-3.85L255.62-3.85ZM276.62 0.5Q274.52 0.5 272.77 0.05 271.02-0.4 269.32-1.35L269.32-1.35 269.87-6.3Q273.37-3.9 276.22-3.9L276.22-3.9Q277.92-3.9 278.87-4.58 279.82-5.25 279.82-6.5L279.82-6.5Q279.82-7.85 278.92-8.65 278.02-9.45 275.27-10.75L275.27-10.75Q272.27-12.15 270.89-13.78 269.52-15.4 269.52-18.15L269.52-18.15Q269.52-21.3 271.74-23.28 273.97-25.25 277.77-25.25L277.77-25.25Q281.32-25.25 284.22-23.5L284.22-23.5 283.67-18.75Q282.27-19.85 280.99-20.43 279.72-21 278.12-21L278.12-21Q276.57-21 275.67-20.33 274.77-19.65 274.77-18.45L274.77-18.45Q274.77-17.2 275.67-16.5 276.57-15.8 279.27-14.45L279.27-14.45Q282.37-12.95 283.72-11.25 285.07-9.55 285.07-6.85L285.07-6.85Q285.07-3.45 282.77-1.48 280.47 0.5 276.62 0.5L276.62 0.5ZM294.91 0.5Q292.81 0.5 291.06 0.05 289.31-0.4 287.61-1.35L287.61-1.35 288.16-6.3Q291.66-3.9 294.51-3.9L294.51-3.9Q296.21-3.9 297.16-4.58 298.11-5.25 298.11-6.5L298.11-6.5Q298.11-7.85 297.21-8.65 296.31-9.45 293.56-10.75L293.56-10.75Q290.56-12.15 289.19-13.78 287.81-15.4 287.81-18.15L287.81-18.15Q287.81-21.3 290.04-23.28 292.26-25.25 296.06-25.25L296.06-25.25Q299.61-25.25 302.51-23.5L302.51-23.5 301.96-18.75Q300.56-19.85 299.29-20.43 298.01-21 296.41-21L296.41-21Q294.86-21 293.96-20.33 293.06-19.65 293.06-18.45L293.06-18.45Q293.06-17.2 293.96-16.5 294.86-15.8 297.56-14.45L297.56-14.45Q300.66-12.95 302.01-11.25 303.36-9.55 303.36-6.85L303.36-6.85Q303.36-3.45 301.06-1.48 298.76 0.5 294.91 0.5L294.91 0.5ZM306.86-29.25L306.86-35 312.26-35 312.26-29.25 306.86-29.25ZM306.86 0L306.86-24.8 312.26-24.8 312.26 0 306.86 0ZM323.56 0.5Q321.46 0.5 319.71 0.05 317.96-0.4 316.26-1.35L316.26-1.35 316.81-6.3Q320.31-3.9 323.16-3.9L323.16-3.9Q324.86-3.9 325.81-4.58 326.76-5.25 326.76-6.5L326.76-6.5Q326.76-7.85 325.86-8.65 324.96-9.45 322.21-10.75L322.21-10.75Q319.21-12.15 317.83-13.78 316.46-15.4 316.46-18.15L316.46-18.15Q316.46-21.3 318.68-23.28 320.91-25.25 324.71-25.25L324.71-25.25Q328.26-25.25 331.16-23.5L331.16-23.5 330.61-18.75Q329.21-19.85 327.93-20.43 326.66-21 325.06-21L325.06-21Q323.51-21 322.61-20.33 321.71-19.65 321.71-18.45L321.71-18.45Q321.71-17.2 322.61-16.5 323.51-15.8 326.21-14.45L326.21-14.45Q329.31-12.95 330.66-11.25 332.01-9.55 332.01-6.85L332.01-6.85Q332.01-3.45 329.71-1.48 327.41 0.5 323.56 0.5L323.56 0.5ZM342.71 0.5Q339.86 0.5 338.38-1.18 336.91-2.85 336.91-5.8L336.91-5.8 336.91-20.3 333.86-20.3 334.36-24.8 336.91-24.8 336.91-30.5 342.31-31.1 342.31-24.8 347.01-24.8 347.01-20.3 342.31-20.3 342.31-7.4Q342.31-5.65 343.01-4.85 343.71-4.05 345.31-4.05L345.31-4.05 347.01-4.05 346.51 0.5 342.71 0.5ZM355.4 0.5Q352.6 0.5 350.7-1.4 348.8-3.3 348.8-6.5L348.8-6.5Q348.8-9.85 350.83-11.9 352.85-13.95 355.6-14.8 358.35-15.65 360.85-15.75L360.85-15.75Q360.85-18.25 360-19.33 359.15-20.4 357.1-20.4L357.1-20.4Q355.6-20.4 354.2-19.9 352.8-19.4 351.1-18.4L351.1-18.4 350.65-22.95Q354.4-25.25 358.45-25.25L358.45-25.25Q366.35-25.25 366.35-15.9L366.35-15.9 366.35-8.45Q366.35-6.55 366.5-5.65 366.65-4.75 367.03-4.4 367.4-4.05 368.2-4.05L368.2-4.05 368.9-4.05 368.45 0.5 366.4 0.5Q364.7 0.5 363.48-0.33 362.25-1.15 361.6-2.65L361.6-2.65Q360.3-1.1 358.8-0.3 357.3 0.5 355.4 0.5L355.4 0.5ZM357.15-3.85Q359.25-3.85 360.9-6.2L360.9-6.2 360.9-11.95Q354.5-11.3 354.5-7L354.5-7Q354.5-3.85 357.15-3.85L357.15-3.85ZM383.1-25.25Q386.9-25.25 388.88-22.6 390.85-19.95 390.85-15.45L390.85-15.45 390.85 0 385.45 0 385.45-14.75Q385.45-17.7 384.53-19.2 383.6-20.7 381.65-20.7L381.65-20.7Q378.9-20.7 377.25-18.05L377.25-18.05 377.25 0 371.85 0 371.85-24.8 376.5-24.8 376.75-22.5Q379.1-25.25 383.1-25.25L383.1-25.25ZM402.55 0.5Q399.7 0.5 398.22-1.18 396.75-2.85 396.75-5.8L396.75-5.8 396.75-20.3 393.7-20.3 394.2-24.8 396.75-24.8 396.75-30.5 402.15-31.1 402.15-24.8 406.85-24.8 406.85-20.3 402.15-20.3 402.15-7.4Q402.15-5.65 402.85-4.85 403.55-4.05 405.15-4.05L405.15-4.05 406.85-4.05 406.35 0.5 402.55 0.5Z" opacity="1" transform="matrix(1,0,0,1,0,0)" fill="#009b7d" class="wordmark-text-0" data-fill-palette-color="primary" id="text-0"></path></svg></g></svg></g><g transform="matrix(1,0,0,1,0,39.04822663973935)"><svg viewBox="0 0 143.50565145599998 17.03865623440484" height="17.03865623440484" width="143.50565145599998"><g transform="matrix(1,0,0,1,0,0)"><svg width="143.50565145599998" viewBox="4.08 -39.11 439.58000000000004 52.2" height="17.03865623440484" data-palette-color="#009b7d"><path d="M4.08-1.12L4.08-39.11 9.99-39.11 9.99-21.88Q11.06-22.83 12.15-23.65 13.23-24.46 14.37-25.06 15.5-25.66 16.72-26.01 17.94-26.37 19.29-26.37L19.29-26.37Q21.63-26.37 23.49-25.33 25.34-24.29 26.65-22.56 27.95-20.83 28.64-18.58 29.32-16.33 29.32-13.89L29.32-13.89Q29.32-10.91 28.27-8.29 27.22-5.66 25.22-3.71 23.22-1.76 20.28-0.63 17.33 0.49 13.57 0.49L13.57 0.49Q11.6 0.49 9.11 0.13 6.62-0.22 4.08-1.12L4.08-1.12ZM9.99-18.7L9.99-4.86Q11.3-4.27 12.6-4 13.89-3.74 15.01-3.74L15.01-3.74Q17.04-3.74 18.57-4.5 20.09-5.27 21.12-6.57 22.14-7.86 22.66-9.53 23.17-11.21 23.17-13.01L23.17-13.01Q23.17-14.72 22.73-16.32 22.29-17.92 21.42-19.14 20.56-20.36 19.3-21.11 18.04-21.85 16.43-21.85L16.43-21.85Q15.09-21.85 13.48-21.18 11.87-20.51 9.99-18.7L9.99-18.7ZM57.08-5.32L57.08-2.37Q56-1.61 54.76-1.07 53.51-0.54 52.19-0.18 50.88 0.17 49.57 0.33 48.26 0.49 47.09 0.49L47.09 0.49Q44.38 0.49 42.05-0.34 39.72-1.17 38-2.78 36.28-4.39 35.3-6.75 34.32-9.11 34.32-12.16L34.32-12.16Q34.32-15.41 35.42-18.04 36.52-20.68 38.36-22.52 40.21-24.37 42.64-25.37 45.07-26.37 47.7-26.37L47.7-26.37Q49.9-26.37 51.79-25.65 53.68-24.93 55.06-23.51 56.44-22.09 57.22-19.97 58.01-17.85 58.01-15.04L58.01-15.04Q58.01-14.36 57.94-13.59 57.88-12.82 57.74-12.08L57.74-12.08 40.45-12.08Q40.45-10.11 41.15-8.59 41.84-7.08 43.11-6.07 44.38-5.05 46.16-4.53 47.95-4 50.1-4L50.1-4Q50.71-4 51.52-4.05 52.34-4.1 53.27-4.25 54.2-4.39 55.17-4.65 56.15-4.91 57.08-5.32L57.08-5.32ZM40.45-14.97L52.51-14.97Q52.51-16.75 52.06-18.09 51.61-19.43 50.83-20.34 50.05-21.24 49.01-21.69 47.97-22.14 46.77-22.14L46.77-22.14Q45.43-22.14 44.28-21.61 43.14-21.07 42.28-20.1 41.43-19.14 40.94-17.82 40.45-16.5 40.45-14.97L40.45-14.97ZM75.41 0L75.41-39.11 81.32-39.11 81.32-21.7Q82.22-22.51 83.31-23.33 84.39-24.15 85.6-24.83 86.81-25.51 88.15-25.94 89.49-26.37 90.93-26.37L90.93-26.37Q92.69-26.37 94.13-25.71 95.57-25.05 96.6-23.85 97.62-22.66 98.19-20.97 98.75-19.29 98.75-17.24L98.75-17.24 98.75 0 92.81 0 92.81-16.58Q92.81-17.9 92.45-18.88 92.08-19.87 91.45-20.53 90.81-21.19 89.92-21.52 89.03-21.85 88.01-21.85L88.01-21.85Q86.2-21.85 84.59-20.92 82.98-20 81.32-18.48L81.32-18.48 81.32 0 75.41 0ZM128.07-5.32L128.07-2.37Q126.99-1.61 125.75-1.07 124.5-0.54 123.18-0.18 121.87 0.17 120.56 0.33 119.25 0.49 118.08 0.49L118.08 0.49Q115.37 0.49 113.04-0.34 110.71-1.17 108.99-2.78 107.27-4.39 106.29-6.75 105.31-9.11 105.31-12.16L105.31-12.16Q105.31-15.41 106.41-18.04 107.51-20.68 109.35-22.52 111.2-24.37 113.63-25.37 116.05-26.37 118.69-26.37L118.69-26.37Q120.89-26.37 122.78-25.65 124.67-24.93 126.05-23.51 127.43-22.09 128.21-19.97 128.99-17.85 128.99-15.04L128.99-15.04Q128.99-14.36 128.93-13.59 128.87-12.82 128.73-12.08L128.73-12.08 111.44-12.08Q111.44-10.11 112.14-8.59 112.83-7.08 114.1-6.07 115.37-5.05 117.15-4.53 118.94-4 121.08-4L121.08-4Q121.69-4 122.51-4.05 123.33-4.1 124.26-4.25 125.19-4.39 126.16-4.65 127.14-4.91 128.07-5.32L128.07-5.32ZM111.44-14.97L123.5-14.97Q123.5-16.75 123.05-18.09 122.6-19.43 121.82-20.34 121.03-21.24 120-21.69 118.96-22.14 117.76-22.14L117.76-22.14Q116.42-22.14 115.27-21.61 114.13-21.07 113.27-20.1 112.42-19.14 111.93-17.82 111.44-16.5 111.44-14.97L111.44-14.97ZM149.72-3.81L149.72-3.81Q149.08-3.27 148.19-2.53 147.3-1.78 146.22-1.11 145.13-0.44 143.85 0.02 142.57 0.49 141.15 0.49L141.15 0.49Q139.71 0.49 138.48-0.04 137.24-0.56 136.33-1.5 135.41-2.44 134.89-3.75 134.36-5.05 134.36-6.64L134.36-6.64Q134.36-8.3 135.03-9.89 135.71-11.47 137.28-12.72 138.85-13.96 141.44-14.73 144.03-15.5 147.84-15.5L147.84-15.5 149.62-15.5 149.62-17.5Q149.62-18.58 149.26-19.43 148.89-20.29 148.23-20.9 147.57-21.51 146.65-21.83 145.74-22.14 144.62-22.14L144.62-22.14Q143.74-22.14 142.74-21.94 141.74-21.73 140.76-21.36 139.78-21 138.85-20.5 137.93-20 137.19-19.41L137.19-19.41 136.76-19.65 135.63-23.75Q138.59-25.29 141.13-25.83 143.66-26.37 145.89-26.37L145.89-26.37Q148.18-26.37 149.98-25.9 151.77-25.44 153.01-24.48 154.26-23.51 154.91-22.03 155.55-20.56 155.55-18.53L155.55-18.53 155.55-6.57Q155.55-6.2 155.61-5.76 155.68-5.32 155.86-4.93 156.04-4.54 156.4-4.27 156.75-4 157.34-4L157.34-4Q157.68-4 158.17-4.1 158.65-4.2 159.14-4.42L159.14-4.42 159.14-1.49Q157.82-0.59 156.52-0.05 155.21 0.49 153.97 0.49L153.97 0.49Q152.99 0.49 152.28 0.12 151.57-0.24 151.09-0.84 150.6-1.44 150.27-2.21 149.94-2.98 149.72-3.81ZM149.62-6.96L149.62-12.62 148.08-12.62Q145.54-12.62 143.99-12.27 142.44-11.91 141.59-11.29 140.73-10.67 140.45-9.85 140.17-9.03 140.17-8.08L140.17-8.08Q140.17-7.08 140.47-6.32 140.76-5.57 141.26-5.05 141.76-4.54 142.44-4.27 143.13-4 143.91-4L143.91-4Q144.49-4 145.13-4.14 145.76-4.27 146.46-4.61 147.16-4.96 147.94-5.52 148.72-6.08 149.62-6.96L149.62-6.96ZM164.41 0L164.41-39.11 170.32-39.11 170.32 0 164.41 0ZM180.67-7.15L180.67-21.66 175.47-21.66 175.91-24.44Q177.84-24.93 179-25.54 180.16-26.15 180.93-27.04 181.7-27.93 182.27-29.21 182.84-30.49 183.6-32.32L183.6-32.32 186.43-32.32 186.43-25.88 195.73-25.88 194.68-21.66 186.6-21.66 186.6-8.33Q186.6-7.13 186.95-6.31 187.29-5.49 187.92-4.98 188.56-4.47 189.45-4.24 190.34-4 191.46-4L191.46-4Q192.54-4 193.6-4.2 194.66-4.39 195.61-4.76L195.61-4.76 195.61-1.78Q193.95-0.66 192.06-0.09 190.17 0.49 188.24 0.49L188.24 0.49Q184.55 0.49 182.61-1.51 180.67-3.52 180.67-7.15L180.67-7.15ZM202.3 0L202.3-39.11 208.21-39.11 208.21-21.7Q209.11-22.51 210.2-23.33 211.28-24.15 212.49-24.83 213.7-25.51 215.04-25.94 216.39-26.37 217.83-26.37L217.83-26.37Q219.58-26.37 221.02-25.71 222.47-25.05 223.49-23.85 224.52-22.66 225.08-20.97 225.64-19.29 225.64-17.24L225.64-17.24 225.64 0 219.71 0 219.71-16.58Q219.71-17.9 219.34-18.88 218.97-19.87 218.34-20.53 217.7-21.19 216.81-21.52 215.92-21.85 214.9-21.85L214.9-21.85Q213.09-21.85 211.48-20.92 209.87-20 208.21-18.48L208.21-18.48 208.21 0 202.3 0ZM239.99 0L230.74-25.88 237.28-25.88 242.31-9.3 243.43-4.44 243.92-4.44 245.02-9.3 250.1-25.88 255.69-25.88 241.8 13.09 236.33 13.09 241.8 0 239.99 0ZM269.06-25.88L275.51-25.88 279.66-8.84 280.42-4.44 280.88-4.44 281.74-8.79 286.33-25.1 292.92-25.1 297.48-8.84 298.39-4.44 298.87-4.44 299.63-8.79 303.83-25.88 309.3-25.88 301.49 0 294.89 0 290.55-14.94 289.47-19.85 288.99-19.85 287.86-14.92 283.4 0 276.78 0 269.06-25.88ZM314.81 0L314.81-25.88 320.75-25.88 320.75 0 314.81 0ZM317.77-30.98L317.77-30.98Q316.99-30.98 316.34-31.24 315.69-31.49 315.22-31.93 314.74-32.37 314.48-32.98 314.23-33.59 314.23-34.3L314.23-34.3Q314.23-35.03 314.51-35.66 314.79-36.28 315.29-36.76 315.79-37.23 316.46-37.5 317.13-37.77 317.91-37.77L317.91-37.77Q318.67-37.77 319.31-37.5 319.94-37.23 320.4-36.78 320.87-36.33 321.14-35.71 321.41-35.08 321.41-34.38L321.41-34.38Q321.41-33.64 321.12-33.02 320.84-32.4 320.34-31.95 319.84-31.49 319.18-31.24 318.52-30.98 317.77-30.98ZM331.14-7.15L331.14-21.66 325.94-21.66 326.38-24.44Q328.31-24.93 329.47-25.54 330.63-26.15 331.4-27.04 332.17-27.93 332.74-29.21 333.32-30.49 334.07-32.32L334.07-32.32 336.91-32.32 336.91-25.88 346.21-25.88 345.16-21.66 337.08-21.66 337.08-8.33Q337.08-7.13 337.42-6.31 337.76-5.49 338.4-4.98 339.03-4.47 339.92-4.24 340.81-4 341.94-4L341.94-4Q343.01-4 344.07-4.2 345.13-4.39 346.09-4.76L346.09-4.76 346.09-1.78Q344.43-0.66 342.53-0.09 340.64 0.49 338.71 0.49L338.71 0.49Q335.03 0.49 333.09-1.51 331.14-3.52 331.14-7.15L331.14-7.15ZM352.77 0L352.77-39.11 358.68-39.11 358.68-21.7Q359.58-22.51 360.67-23.33 361.76-24.15 362.97-24.83 364.17-25.51 365.52-25.94 366.86-26.37 368.3-26.37L368.3-26.37Q370.06-26.37 371.5-25.71 372.94-25.05 373.96-23.85 374.99-22.66 375.55-20.97 376.11-19.29 376.11-17.24L376.11-17.24 376.11 0 370.18 0 370.18-16.58Q370.18-17.9 369.81-18.88 369.45-19.87 368.81-20.53 368.18-21.19 367.29-21.52 366.4-21.85 365.37-21.85L365.37-21.85Q363.56-21.85 361.95-20.92 360.34-20 358.68-18.48L358.68-18.48 358.68 0 352.77 0ZM394.91-8.62L394.91-25.88 400.81-25.88 400.81-9.55Q400.81-8.3 401.16-7.29 401.5-6.27 402.11-5.54 402.72-4.81 403.57-4.41 404.43-4 405.45-4L405.45-4Q406.33-4 407.17-4.3 408.02-4.59 408.8-5.07 409.58-5.54 410.29-6.16 411-6.79 411.63-7.47L411.63-7.47 411.63-25.88 417.54-25.88 417.54 0 412.75 0 411.87-4.37Q411-3.56 409.97-2.7 408.94-1.83 407.8-1.12 406.65-0.42 405.37 0.04 404.09 0.49 402.69 0.49L402.69 0.49Q401.11 0.49 399.69-0.15 398.28-0.78 397.21-1.95 396.15-3.13 395.53-4.81 394.91-6.49 394.91-8.62L394.91-8.62ZM424.05-1.22L425.1-5.66 425.54-5.93Q426.5-5.42 427.53-5 428.57-4.59 429.6-4.31 430.62-4.03 431.6-3.88 432.57-3.74 433.43-3.74L433.43-3.74Q435.65-3.74 436.91-4.66 438.17-5.59 438.17-7.03L438.17-7.03Q438.17-8.01 437.59-8.64 437.02-9.28 436.08-9.73 435.14-10.18 433.94-10.52 432.75-10.86 431.49-11.24 430.23-11.62 429.03-12.11 427.84-12.6 426.9-13.35 425.96-14.11 425.38-15.2 424.81-16.28 424.81-17.87L424.81-17.87Q424.81-19.65 425.58-21.22 426.35-22.78 427.78-23.91 429.21-25.05 431.24-25.71 433.28-26.37 435.82-26.37L435.82-26.37Q436.46-26.37 437.3-26.32 438.14-26.27 439.06-26.16 439.97-26.05 440.9-25.88 441.83-25.71 442.63-25.44L442.63-25.44 441.56-21.07 441.02-20.75Q440.29-21.12 439.45-21.39 438.6-21.66 437.76-21.81 436.92-21.97 436.13-22.06 435.33-22.14 434.72-22.14L434.72-22.14Q432.57-22.14 431.37-21.29 430.16-20.43 430.16-18.99L430.16-18.99Q430.16-17.99 430.74-17.35 431.33-16.7 432.27-16.25 433.21-15.8 434.43-15.47 435.65-15.14 436.91-14.76 438.17-14.38 439.39-13.89 440.61-13.4 441.55-12.65 442.49-11.89 443.07-10.79 443.66-9.69 443.66-8.08L443.66-8.08Q443.66-6.27 442.88-4.7 442.1-3.13 440.66-1.98 439.22-0.83 437.19-0.17 435.16 0.49 432.7 0.49L432.7 0.49Q430.67 0.49 428.4 0.05 426.13-0.39 424.05-1.22L424.05-1.22Z" opacity="1" transform="matrix(1,0,0,1,0,0)" fill="#009b7d" class="slogan-text-1" data-fill-palette-color="secondary" id="text-1"></path></svg></g></svg></g></svg></g></svg></g><g transform="matrix(1,0,0,1,48.8116193456965,0)"><svg viewBox="0 0 148.03027810860695 149.77216855179967" height="149.77216855179967" width="148.03027810860695"><g><svg xmlns="http://www.w3.org/2000/svg" xmlns:xlink="http://www.w3.org/1999/xlink" version="1.1" x="0" y="0" viewBox="1.99945890751781 1.293 60.00096132701166 60.707" style="enable-background:new 0 0 64 64;" xml:space="preserve" height="149.77216855179967" width="148.03027810860695" class="icon-icon-0" data-fill-palette-color="accent" id="icon-0"><path d="M3 62h12c0.526 0 0.946-0.411 0.985-0.927l12.943 0.925C28.953 61.999 28.976 62 29 62c0.123 0 0.244-0.022 0.359-0.066l13-5c0.139-0.054 0.264-0.137 0.366-0.245l19-20C61.901 36.503 62 36.256 62 36c0-1.747-0.863-3.067-2.258-3.657L61.8 29.6c0.228-0.303 0.264-0.708 0.095-1.047S61.379 28 61 28H42.409c1.481-1.197 2.588-2.861 3.077-4.817L46.281 20H51c0.552 0 1-0.448 1-1v-6c0-0.552-0.448-1-1-1h-3.307c-0.228-2.006-1.136-3.921-2.58-5.367C43.419 4.935 41.16 4 38.754 4c-0.14 0-0.278 0.029-0.406 0.086l-1.477 0.656c-1.237 0.55-2.547 0.87-3.872 0.98V4.414l1.707-1.707-1.414-1.414-2 2C31.105 3.48 31 3.735 31 4v1.722c-1.324-0.11-2.635-0.43-3.872-0.98l-1.477-0.656C25.524 4.029 25.386 4 25.246 4c-2.406 0-4.665 0.935-6.359 2.633C18.468 7.052 18.094 7.511 17.769 8H17c-2.757 0-5 2.243-5 5v2c0 2.757 2.243 5 5 5h0.719l0.796 3.183c0.489 1.956 1.595 3.62 3.077 4.817H3c-0.379 0-0.725 0.214-0.895 0.553S1.973 29.297 2.2 29.6l3 4C5.389 33.852 5.685 34 6 34h15.556C21.212 34.591 21 35.268 21 36v5.54l-5 4.286V43c0-0.552-0.448-1-1-1H3c-0.552 0-1 0.448-1 1v18C2 61.552 2.448 62 3 62zM29 51.059v-0.645l12.638-12.638c0.511-0.324 1.3-0.423 1.654-0.069 0.393 0.393 0.393 1.193 0 1.586l-5.701 5.701C34.583 47.096 31.619 49.193 29 51.059zM44.707 36.293c-1.191-1.191-3.095-0.946-4.283-0.111-0.047 0.033-0.091 0.07-0.131 0.111L29 47.586V36c0-0.732-0.212-1.409-0.556-2H54.01c-2.278 1.382-5.305 3.372-8.623 5.621C45.795 38.502 45.572 37.158 44.707 36.293zM25.041 6.003l1.276 0.567c3.612 1.605 7.755 1.605 11.367 0l1.276-0.567c1.794 0.051 3.47 0.772 4.738 2.042 1.071 1.074 1.768 2.476 1.984 3.955H18.318c0.048-0.33 0.129-0.653 0.224-0.973 0.019-0.064 0.036-0.128 0.057-0.192 0.096-0.294 0.214-0.581 0.349-0.86 0.04-0.083 0.084-0.164 0.127-0.245 0.325-0.614 0.731-1.187 1.228-1.685C21.57 6.775 23.247 6.054 25.041 6.003zM14 15v-2c0-1.574 1.219-2.869 2.763-2.991-0.025 0.071-0.043 0.144-0.067 0.216-0.035 0.106-0.068 0.213-0.099 0.32-0.048 0.168-0.09 0.337-0.128 0.506-0.022 0.099-0.046 0.198-0.065 0.298-0.036 0.189-0.062 0.379-0.085 0.569-0.01 0.085-0.025 0.168-0.033 0.253-0.026 0.276-0.041 0.552-0.041 0.83 0 0 0 0 0 0 0 0 0 0 0 0 0.001 0.413 0.253 0.768 0.611 0.92 0.12 0.05 0.251 0.078 0.389 0.078H20v2h2v-2h3v2h2v-2h3v2h2v-2h3v2h2v-2h3v2h2v-2h3v2h2v-2h3v4h-4.5-27H17C15.346 18 14 16.654 14 15zM20.455 22.698L19.781 20h24.438l-0.674 2.698C42.764 25.82 39.972 28 36.754 28h-9.508C24.028 28 21.236 25.82 20.455 22.698zM5 30h54l-1.5 2h-51L5 30zM22.651 42.759C22.873 42.569 23 42.292 23 42v-6c0-1.103 0.897-2 2-2s2 0.897 2 2v14 3c0 0.375 0.209 0.718 0.542 0.889 0.132 0.068 0.274 0.095 0.417 0.101C27.973 53.991 27.986 54 28 54c0.011 0 0.022-0.005 0.033-0.005 0.065-0.002 0.128-0.015 0.191-0.03 0.031-0.007 0.063-0.009 0.094-0.02 0.092-0.031 0.182-0.073 0.263-0.132 0.046-0.033 4.641-3.313 10.16-7.163 0.008-0.006 0.015-0.013 0.023-0.019C47.567 40.498 56.581 34.417 58.065 34c1.438 0.028 1.82 0.965 1.91 1.626L41.431 55.147l-12.582 4.839L16 59.069V48.46L22.651 42.759zM4 44h10v4 12H4V44z" fill="#ffbf5d" data-fill-palette-color="accent"></path><path d="M9 46c-1.654 0-3 1.346-3 3s1.346 3 3 3 3-1.346 3-3S10.654 46 9 46zM9 50c-0.551 0-1-0.449-1-1s0.449-1 1-1 1 0.449 1 1S9.551 50 9 50z" fill="#ffbf5d" data-fill-palette-color="accent"></path></svg></g></svg></g><g></g></svg></g></svg></g><path d="M0 41.215L0 1 176.243 1 176.243 41.215 174.303 41.215 174.303 2.939 1.939 2.939 1.939 41.215 0 41.215M0 205.985L0 246.2 176.243 246.2 176.243 205.985 174.303 205.985 174.303 244.261 1.939 244.261 1.939 205.985 0 205.985" fill="#009b7d" stroke="transparent" data-fill-palette-color="tertiary"></path></svg></g><defs></defs></svg><rect width="176.2428532672581" height="247.2" fill="none" stroke="none" visibility="hidden"></rect></g></svg></g></svg>