<svg xmlns="http://www.w3.org/2000/svg" version="1.1" xmlns:xlink="http://www.w3.org/1999/xlink" xmlns:svgjs="http://svgjs.dev/svgjs" width="2000" height="2000" viewBox="0 0 2000 2000"><g transform="matrix(1,0,0,1,-0.1910931174088546,-0.19028340080978978)"><svg viewBox="0 0 247 247" data-background-color="#ffffff" preserveAspectRatio="xMidYMid meet" height="2000" width="2000" xmlns="http://www.w3.org/2000/svg" xmlns:xlink="http://www.w3.org/1999/xlink"><g id="tight-bounds" transform="matrix(1,0,0,1,0.02359999999998763,0.023500000000012733)"><svg viewBox="0 0 246.95280000000002 246.95280000000002" height="246.95280000000002" width="246.95280000000002"><g><svg viewBox="0 0 246.95280000000002 246.95280000000002" height="246.95280000000002" width="246.95280000000002"><g><svg viewBox="0 0 246.95280000000002 246.95280000000002" height="246.95280000000002" width="246.95280000000002"><g><svg viewBox="0 0 246.95280000000002 246.95280000000002" height="246.95280000000002" width="246.95280000000002"><g id="textblocktransform"><svg viewBox="0 0 246.95280000000002 246.95280000000002" height="246.95280000000002" width="246.95280000000002" id="textblock"><g><svg viewBox="0 0 246.95280000000002 246.95280000000002" height="246.95280000000002" width="246.95280000000002"><g transform="matrix(1,0,0,1,39.07576690204748,39.07576690204748)"><svg viewBox="0 0 168.80126619590507 168.80126619590507" height="168.80126619590507" width="168.80126619590507"><g id="icon-0"><circle r="84" cx="84.40063309795254" cy="84.40063309795254" fill="#ffbf5d" data-fill-palette-color="accent"></circle><svg xmlns="http://www.w3.org/2000/svg" xmlns:xlink="http://www.w3.org/1999/xlink" version="1.1" x="25.32018992938576" y="25.32018992938576" viewBox="1.99945890751781 1.293 60.00096132701166 60.707" style="enable-background:new 0 0 64 64;" xml:space="preserve" height="118.16088633713355" width="118.16088633713355" class="icon-xg-0" data-fill-palette-color="quaternary" id="xg-0"><path d="M3 62h12c0.526 0 0.946-0.411 0.985-0.927l12.943 0.925C28.953 61.999 28.976 62 29 62c0.123 0 0.244-0.022 0.359-0.066l13-5c0.139-0.054 0.264-0.137 0.366-0.245l19-20C61.901 36.503 62 36.256 62 36c0-1.747-0.863-3.067-2.258-3.657L61.8 29.6c0.228-0.303 0.264-0.708 0.095-1.047S61.379 28 61 28H42.409c1.481-1.197 2.588-2.861 3.077-4.817L46.281 20H51c0.552 0 1-0.448 1-1v-6c0-0.552-0.448-1-1-1h-3.307c-0.228-2.006-1.136-3.921-2.58-5.367C43.419 4.935 41.16 4 38.754 4c-0.14 0-0.278 0.029-0.406 0.086l-1.477 0.656c-1.237 0.55-2.547 0.87-3.872 0.98V4.414l1.707-1.707-1.414-1.414-2 2C31.105 3.48 31 3.735 31 4v1.722c-1.324-0.11-2.635-0.43-3.872-0.98l-1.477-0.656C25.524 4.029 25.386 4 25.246 4c-2.406 0-4.665 0.935-6.359 2.633C18.468 7.052 18.094 7.511 17.769 8H17c-2.757 0-5 2.243-5 5v2c0 2.757 2.243 5 5 5h0.719l0.796 3.183c0.489 1.956 1.595 3.62 3.077 4.817H3c-0.379 0-0.725 0.214-0.895 0.553S1.973 29.297 2.2 29.6l3 4C5.389 33.852 5.685 34 6 34h15.556C21.212 34.591 21 35.268 21 36v5.54l-5 4.286V43c0-0.552-0.448-1-1-1H3c-0.552 0-1 0.448-1 1v18C2 61.552 2.448 62 3 62zM29 51.059v-0.645l12.638-12.638c0.511-0.324 1.3-0.423 1.654-0.069 0.393 0.393 0.393 1.193 0 1.586l-5.701 5.701C34.583 47.096 31.619 49.193 29 51.059zM44.707 36.293c-1.191-1.191-3.095-0.946-4.283-0.111-0.047 0.033-0.091 0.07-0.131 0.111L29 47.586V36c0-0.732-0.212-1.409-0.556-2H54.01c-2.278 1.382-5.305 3.372-8.623 5.621C45.795 38.502 45.572 37.158 44.707 36.293zM25.041 6.003l1.276 0.567c3.612 1.605 7.755 1.605 11.367 0l1.276-0.567c1.794 0.051 3.47 0.772 4.738 2.042 1.071 1.074 1.768 2.476 1.984 3.955H18.318c0.048-0.33 0.129-0.653 0.224-0.973 0.019-0.064 0.036-0.128 0.057-0.192 0.096-0.294 0.214-0.581 0.349-0.86 0.04-0.083 0.084-0.164 0.127-0.245 0.325-0.614 0.731-1.187 1.228-1.685C21.57 6.775 23.247 6.054 25.041 6.003zM14 15v-2c0-1.574 1.219-2.869 2.763-2.991-0.025 0.071-0.043 0.144-0.067 0.216-0.035 0.106-0.068 0.213-0.099 0.32-0.048 0.168-0.09 0.337-0.128 0.506-0.022 0.099-0.046 0.198-0.065 0.298-0.036 0.189-0.062 0.379-0.085 0.569-0.01 0.085-0.025 0.168-0.033 0.253-0.026 0.276-0.041 0.552-0.041 0.83 0 0 0 0 0 0 0 0 0 0 0 0 0.001 0.413 0.253 0.768 0.611 0.92 0.12 0.05 0.251 0.078 0.389 0.078H20v2h2v-2h3v2h2v-2h3v2h2v-2h3v2h2v-2h3v2h2v-2h3v2h2v-2h3v4h-4.5-27H17C15.346 18 14 16.654 14 15zM20.455 22.698L19.781 20h24.438l-0.674 2.698C42.764 25.82 39.972 28 36.754 28h-9.508C24.028 28 21.236 25.82 20.455 22.698zM5 30h54l-1.5 2h-51L5 30zM22.651 42.759C22.873 42.569 23 42.292 23 42v-6c0-1.103 0.897-2 2-2s2 0.897 2 2v14 3c0 0.375 0.209 0.718 0.542 0.889 0.132 0.068 0.274 0.095 0.417 0.101C27.973 53.991 27.986 54 28 54c0.011 0 0.022-0.005 0.033-0.005 0.065-0.002 0.128-0.015 0.191-0.03 0.031-0.007 0.063-0.009 0.094-0.02 0.092-0.031 0.182-0.073 0.263-0.132 0.046-0.033 4.641-3.313 10.16-7.163 0.008-0.006 0.015-0.013 0.023-0.019C47.567 40.498 56.581 34.417 58.065 34c1.438 0.028 1.82 0.965 1.91 1.626L41.431 55.147l-12.582 4.839L16 59.069V48.46L22.651 42.759zM4 44h10v4 12H4V44z" fill="#ffffff" data-fill-palette-color="quaternary"></path><path d="M9 46c-1.654 0-3 1.346-3 3s1.346 3 3 3 3-1.346 3-3S10.654 46 9 46zM9 50c-0.551 0-1-0.449-1-1s0.449-1 1-1 1 0.449 1 1S9.551 50 9 50z" fill="#ffffff" data-fill-palette-color="quaternary"></path></svg></g></svg></g><g id="text-0"><path d="M15.819 84.647c0.474-1.475 1.358-2.439 2.652-2.891 1.292-0.446 2.822-0.386 4.588 0.182v0l9.111 2.929-1.022 3.179-8.702-2.797c-2.337-0.751-3.745-0.38-4.225 1.114v0c-0.341 1.06-0.098 2.092 0.728 3.096v0l10.645 3.422-1.024 3.189-22.109-7.106 1.025-3.189 8.516 2.737c-0.571-1.182-0.632-2.47-0.183-3.865z" fill="#ffffff" data-fill-palette-color="primary"></path><path d="M36.786 76.258c-0.692 1.387-1.605 2.408-2.74 3.064-1.135 0.656-2.369 0.957-3.702 0.903-1.334-0.054-2.667-0.414-4.002-1.079v0c-1.328-0.663-2.414-1.491-3.256-2.486-0.839-1.001-1.35-2.092-1.531-3.274-0.179-1.188 0.04-2.399 0.656-3.635v0c0.776-1.555 1.932-2.525 3.469-2.907 1.546-0.386 3.23-0.124 5.054 0.785v0c0.466 0.232 0.979 0.546 1.538 0.942v0l-3.871 7.76c1.442 0.581 2.675 0.712 3.7 0.394 1.025-0.318 1.791-0.987 2.299-2.007v0c0.607-1.218 0.865-2.566 0.774-4.045v0l2.7 1.173c0.051 1.386-0.312 2.856-1.088 4.412zM26.339 75.193l2.375-4.762c-0.903-0.45-1.71-0.635-2.42-0.553-0.71 0.082-1.254 0.502-1.632 1.26v0c-0.352 0.705-0.387 1.404-0.107 2.096 0.274 0.69 0.869 1.343 1.784 1.959z" fill="#ffffff" data-fill-palette-color="primary"></path><path d="M42.225 67.083c-0.654 0.949-1.529 1.524-2.625 1.725-1.087 0.2-2.174-0.076-3.262-0.826v0c-1.142-0.787-1.824-1.764-2.048-2.931-0.22-1.172-0.153-2.324 0.201-3.455 0.354-1.132 0.808-2.135 1.363-3.01v0c-0.852-0.588-1.56-0.862-2.124-0.825-0.564 0.038-1.086 0.406-1.567 1.103v0c-0.351 0.509-0.605 1.061-0.762 1.656-0.157 0.595-0.265 1.296-0.323 2.103v0l-2.484-1.369c0.102-1.811 0.629-3.406 1.578-4.784v0c1.852-2.685 4.367-2.932 7.545-0.74v0l3.794 2.617c0.648 0.447 1.142 0.752 1.481 0.914 0.342 0.157 0.617 0.212 0.824 0.165 0.203-0.042 0.399-0.2 0.587-0.473v0l0.25-0.362 2.162 1.836-0.721 1.045c-0.399 0.579-0.883 0.977-1.451 1.193-0.567 0.226-1.181 0.273-1.842 0.142v0c0.218 0.807 0.289 1.559 0.211 2.257-0.078 0.698-0.34 1.371-0.787 2.019zM40.621 64.661c0.495-0.718 0.536-1.631 0.122-2.74v0l-2.934-2.023c-1.281 2.327-1.19 3.996 0.273 5.004v0c1.072 0.739 1.918 0.659 2.539-0.241z" fill="#ffffff" data-fill-palette-color="primary"></path><path d="M50.806 55.715c-0.734 0.863-1.557 1.278-2.47 1.246-0.912-0.023-1.816-0.417-2.713-1.181v0l-14.951-12.719 2.19-2.573 13.886 11.814c0.536 0.456 0.958 0.768 1.267 0.937 0.304 0.165 0.58 0.207 0.828 0.127 0.238-0.079 0.512-0.3 0.82-0.662v0l1.947 2.067z" fill="#ffffff" data-fill-palette-color="primary"></path><path d="M56.921 49.527c-0.843 0.824-1.724 1.198-2.644 1.123-0.92-0.066-1.805-0.534-2.656-1.405v0l-6.279-6.426-1.348 1.317-1.729-2.202 1.132-1.105-2.464-2.522 2.129-2.613 2.73 2.793 2.082-2.033 1.945 1.99-2.081 2.034 5.589 5.72c0.505 0.517 0.974 0.792 1.406 0.824 0.437 0.037 0.893-0.176 1.368-0.64v0l0.755-0.737 1.749 2.237z" fill="#ffffff" data-fill-palette-color="primary"></path><path d="M56.703 29.075c1.226-0.947 2.501-1.241 3.824-0.881 1.318 0.364 2.544 1.28 3.678 2.749v0l5.851 7.573-2.643 2.042-5.588-7.233c-1.5-1.942-2.872-2.434-4.114-1.475v0c-0.881 0.681-1.265 1.669-1.153 2.964v0l6.836 8.848-2.651 2.048-14.197-18.377 2.651-2.048 5.469 7.079c0.199-1.297 0.878-2.394 2.037-3.289z" fill="#ffffff" data-fill-palette-color="primary"></path><path d="M76.957 43.266l-1.208-8.694-11.749-10.26 3.073-1.687 8.304 7.739-2.175-11.104 3.098-1.702 3.67 24.054z" fill="#ffffff" data-fill-palette-color="primary"></path><path d="M93.104 27.364l-3.873-11.966-1.793 0.58-0.569-2.741 1.505-0.487-1.098-3.392c-0.399-1.233-0.382-2.333 0.051-3.3 0.441-0.964 1.318-1.658 2.631-2.084v0c0.731-0.237 1.4-0.347 2.007-0.331v0l0.581 2.778c-0.391-0.003-0.726 0.04-1.005 0.13v0c-0.471 0.152-0.788 0.43-0.952 0.832-0.16 0.394-0.151 0.866 0.028 1.418v0l0.944 2.917 2.769-0.896 0.857 2.648-2.769 0.896 3.873 11.967z" fill="#ffffff" data-fill-palette-color="primary"></path><path d="M107.357 24.087c-1.355 0.263-2.602 0.141-3.742-0.367-1.139-0.502-2.086-1.299-2.842-2.393-0.763-1.092-1.283-2.357-1.563-3.795v0c-0.28-1.444-0.27-2.809 0.031-4.095 0.293-1.29 0.874-2.381 1.742-3.272 0.868-0.891 1.98-1.469 3.334-1.732v0c1.361-0.264 2.611-0.146 3.75 0.356 1.139 0.502 2.085 1.296 2.841 2.383 0.76 1.079 1.28 2.341 1.56 3.785v0c0.279 1.438 0.27 2.806-0.028 4.105-0.292 1.297-0.872 2.391-1.74 3.282-0.867 0.898-1.981 1.479-3.343 1.743zM106.819 21.317c1.035-0.201 1.755-0.815 2.16-1.842 0.399-1.019 0.447-2.308 0.144-3.868v0c-0.299-1.54-0.825-2.711-1.578-3.513-0.759-0.801-1.656-1.101-2.691-0.9v0c-1.01 0.196-1.72 0.808-2.131 1.836-0.41 1.028-0.466 2.312-0.167 3.852v0c0.303 1.559 0.83 2.737 1.581 3.533 0.759 0.801 1.653 1.102 2.682 0.902z" fill="#ffffff" data-fill-palette-color="primary"></path><path d="M122.505 22.438c-1.379 0.055-2.594-0.255-3.643-0.93-1.05-0.668-1.865-1.6-2.447-2.795-0.588-1.195-0.912-2.524-0.97-3.988v0c-0.059-1.47 0.158-2.818 0.65-4.042 0.485-1.231 1.224-2.222 2.217-2.972 0.993-0.75 2.179-1.152 3.558-1.207v0c1.386-0.055 2.603 0.251 3.653 0.92 1.05 0.668 1.865 1.597 2.447 2.785 0.588 1.182 0.911 2.508 0.969 3.978v0c0.058 1.464-0.158 2.814-0.649 4.053-0.485 1.238-1.224 2.231-2.217 2.981-0.993 0.756-2.182 1.162-3.568 1.217zM122.393 19.618c1.054-0.042 1.858-0.54 2.413-1.494 0.549-0.947 0.791-2.214 0.728-3.801v0c-0.063-1.568-0.405-2.805-1.028-3.712-0.629-0.907-1.47-1.339-2.524-1.297v0c-1.028 0.041-1.822 0.539-2.384 1.493-0.561 0.954-0.811 2.215-0.748 3.782v0c0.063 1.587 0.406 2.831 1.028 3.732 0.629 0.907 1.467 1.339 2.515 1.297z" fill="#ffffff" data-fill-palette-color="primary"></path><path d="M143.105 0l3.358 0.371-2.546 23.082-3.087-0.341 0.009-1.148c-1.116 0.853-2.392 1.2-3.829 1.041v0c-1.23-0.136-2.268-0.61-3.114-1.424-0.841-0.807-1.441-1.839-1.8-3.097-0.366-1.252-0.469-2.606-0.309-4.062v0c0.161-1.456 0.55-2.759 1.168-3.909 0.612-1.151 1.42-2.034 2.425-2.651 1.004-0.61 2.13-0.846 3.379-0.708v0c1.359 0.15 2.482 0.719 3.368 1.708v0zM137.785 20.251c1.048 0.116 1.903-0.242 2.565-1.073 0.662-0.831 1.082-2.055 1.26-3.673v0c0.179-1.624 0.037-2.917-0.427-3.878-0.463-0.968-1.219-1.51-2.266-1.626v0c-0.964-0.106-1.787 0.287-2.469 1.182-0.681 0.888-1.105 2.092-1.273 3.612v0c-0.165 1.495-0.012 2.753 0.458 3.774 0.471 1.015 1.189 1.575 2.152 1.682z" fill="#ffffff" data-fill-palette-color="primary"></path><path d="M156.811 27.263c-1.09-0.374-1.879-1.062-2.368-2.063-0.485-0.993-0.513-2.114-0.083-3.364v0c0.451-1.311 1.207-2.232 2.27-2.762 1.069-0.528 2.197-0.774 3.382-0.738 1.186 0.036 2.274 0.203 3.266 0.503v0c0.336-0.979 0.41-1.735 0.221-2.268-0.189-0.533-0.683-0.937-1.483-1.212v0c-0.585-0.201-1.185-0.297-1.801-0.288-0.616 0.009-1.32 0.094-2.112 0.255v0l0.649-2.761c1.772-0.389 3.449-0.312 5.032 0.231v0c3.085 1.06 4 3.415 2.746 7.067v0l-1.498 4.359c-0.256 0.745-0.416 1.303-0.481 1.672-0.059 0.372-0.038 0.651 0.063 0.838 0.095 0.184 0.3 0.33 0.614 0.438v0l0.415 0.143-1.184 2.577-1.201-0.413c-0.665-0.228-1.178-0.587-1.54-1.076-0.37-0.485-0.581-1.064-0.633-1.735v0c-0.718 0.428-1.424 0.698-2.117 0.811-0.693 0.113-1.412 0.042-2.156-0.214zM158.712 25.066c0.825 0.283 1.715 0.076 2.671-0.621v0l1.158-3.371c-2.587-0.606-4.168-0.069-4.746 1.612v0c-0.423 1.231-0.117 2.025 0.917 2.38z" fill="#ffffff" data-fill-palette-color="primary"></path><path d="M170.337 32.718c-0.778-0.38-1.45-0.813-2.017-1.3-0.569-0.481-1.083-1.054-1.54-1.72v0l1.653-2.605c0.862 1.529 1.822 2.553 2.88 3.07v0c0.632 0.309 1.185 0.423 1.659 0.343 0.474-0.08 0.824-0.351 1.049-0.814v0c0.246-0.503 0.275-0.985 0.087-1.446-0.191-0.455-0.676-1.174-1.457-2.157v0c-0.863-1.066-1.402-2.025-1.616-2.876-0.215-0.851-0.073-1.786 0.423-2.804v0c0.571-1.17 1.448-1.919 2.63-2.247 1.182-0.328 2.478-0.148 3.888 0.54v0c1.316 0.643 2.355 1.549 3.118 2.718v0l-1.602 2.5c-0.315-0.661-0.658-1.212-1.028-1.654-0.368-0.448-0.851-0.818-1.448-1.109v0c-0.573-0.28-1.088-0.376-1.544-0.287-0.456 0.089-0.793 0.355-1.01 0.799v0c-0.226 0.462-0.235 0.903-0.027 1.324 0.205 0.426 0.686 1.132 1.443 2.118v0c0.878 1.124 1.413 2.121 1.605 2.99 0.195 0.877 0.046 1.819-0.446 2.825v0c-0.614 1.258-1.527 2.044-2.738 2.358-1.214 0.32-2.535 0.131-3.962-0.566z" fill="#ffffff" data-fill-palette-color="primary"></path><path d="M180.653 38.612c-0.728-0.469-1.344-0.979-1.85-1.529-0.509-0.545-0.951-1.174-1.327-1.889v0l1.948-2.392c0.675 1.62 1.508 2.749 2.499 3.387v0c0.591 0.381 1.127 0.559 1.607 0.536 0.48-0.024 0.859-0.252 1.138-0.684v0c0.303-0.471 0.389-0.946 0.257-1.427-0.136-0.475-0.533-1.246-1.193-2.313v0c-0.731-1.161-1.154-2.176-1.267-3.047-0.113-0.87 0.137-1.782 0.751-2.734v0c0.705-1.095 1.664-1.735 2.877-1.922 1.212-0.187 2.478 0.145 3.797 0.994v0c1.231 0.793 2.157 1.815 2.775 3.067v0l-1.884 2.294c-0.235-0.693-0.51-1.281-0.827-1.764-0.313-0.488-0.748-0.912-1.307-1.272v0c-0.536-0.346-1.036-0.501-1.499-0.467-0.464 0.034-0.829 0.259-1.098 0.676v0c-0.279 0.432-0.339 0.869-0.182 1.311 0.153 0.447 0.548 1.205 1.184 2.273v0c0.74 1.22 1.153 2.273 1.241 3.158 0.09 0.894-0.169 1.812-0.775 2.753v0c-0.758 1.177-1.757 1.85-2.997 2.019-1.243 0.175-2.533-0.168-3.868-1.028z" fill="#ffffff" data-fill-palette-color="primary"></path><path d="M198.694 28.741l2.189-2.813 2.644 2.057-2.189 2.813zM187.57 43.038l9.433-12.124 2.644 2.057-9.433 12.124z" fill="#ffffff" data-fill-palette-color="primary"></path><path d="M195.644 50.581c-0.625-0.599-1.134-1.217-1.525-1.853-0.396-0.632-0.71-1.334-0.944-2.107v0l2.368-1.978c0.355 1.719 0.958 2.986 1.809 3.802v0c0.508 0.486 1 0.764 1.475 0.831 0.476 0.068 0.891-0.084 1.247-0.455v0c0.387-0.404 0.562-0.855 0.524-1.351-0.043-0.492-0.286-1.325-0.731-2.498v0c-0.497-1.279-0.718-2.356-0.663-3.232 0.055-0.876 0.474-1.723 1.257-2.541v0c0.901-0.94 1.964-1.387 3.19-1.34 1.226 0.047 2.405 0.614 3.538 1.699v0c1.058 1.013 1.772 2.193 2.142 3.538v0l-2.287 1.894c-0.099-0.725-0.257-1.355-0.476-1.889-0.214-0.539-0.561-1.038-1.041-1.497v0c-0.461-0.441-0.922-0.689-1.383-0.744-0.462-0.055-0.864 0.097-1.206 0.454v0c-0.356 0.371-0.499 0.789-0.429 1.252 0.065 0.468 0.309 1.287 0.73 2.457v0c0.494 1.338 0.7 2.451 0.617 3.337-0.082 0.895-0.51 1.747-1.285 2.555v0c-0.968 1.011-2.077 1.481-3.326 1.412-1.254-0.065-2.454-0.647-3.601-1.746z" fill="#ffffff" data-fill-palette-color="primary"></path><path d="M204.077 59.761c-0.755-0.904-1.06-1.812-0.914-2.724 0.137-0.912 0.673-1.758 1.608-2.538v0l6.895-5.76-1.208-1.447 2.33-1.551 1.014 1.214 2.706-2.26 2.439 2.326-2.998 2.504 1.866 2.234-2.136 1.784-1.866-2.233-6.138 5.127c-0.555 0.463-0.865 0.909-0.931 1.338-0.071 0.433 0.106 0.904 0.532 1.413v0l0.676 0.81-2.366 1.569z" fill="#ffffff" data-fill-palette-color="primary"></path><path d="M208.979 66.592c-0.628-0.966-0.827-1.994-0.597-3.083 0.229-1.081 0.897-1.982 2.005-2.703v0c1.162-0.756 2.325-1.016 3.489-0.779 1.167 0.242 2.207 0.742 3.12 1.5 0.913 0.758 1.667 1.56 2.265 2.406v0c0.868-0.565 1.391-1.115 1.57-1.651 0.179-0.536 0.038-1.159-0.423-1.868v0c-0.337-0.518-0.751-0.964-1.242-1.336-0.491-0.372-1.098-0.738-1.822-1.098v0l2.211-1.777c1.636 0.784 2.911 1.877 3.823 3.28v0c1.779 2.734 1.051 5.154-2.185 7.259v0l-3.863 2.514c-0.66 0.43-1.13 0.77-1.409 1.022-0.276 0.257-0.431 0.49-0.466 0.699-0.038 0.204 0.033 0.445 0.214 0.722v0l0.24 0.369-2.52 1.302-0.692-1.064c-0.383-0.589-0.567-1.188-0.552-1.797 0.007-0.61 0.197-1.196 0.57-1.757v0c-0.829-0.105-1.552-0.326-2.168-0.663-0.616-0.337-1.138-0.836-1.568-1.496zM211.829 66.031c0.476 0.731 1.305 1.116 2.488 1.154v0l2.987-1.944c-1.665-2.07-3.243-2.62-4.733-1.65v0c-1.091 0.71-1.339 1.524-0.742 2.44z" fill="#ffffff" data-fill-palette-color="primary"></path><path d="M231.922 75.085c0.675 1.417 0.693 2.727 0.056 3.933-0.635 1.211-1.79 2.215-3.465 3.013v0l-8.641 4.114-1.44-3.024 8.253-3.93c1.099-0.523 1.845-1.091 2.238-1.704 0.396-0.607 0.421-1.275 0.074-2.004v0c-0.487-1.023-1.371-1.608-2.653-1.754v0l-10.095 4.807-1.436-3.015 13.869-6.604 1.234 2.592-1.22 0.754c1.44 0.389 2.515 1.33 3.226 2.822z" fill="#ffffff" data-fill-palette-color="primary"></path><path d="M221.937 93.617c-0.363-1.121-0.306-2.077 0.171-2.868 0.468-0.795 1.282-1.379 2.44-1.754v0l8.548-2.765-0.58-1.793 2.741-0.568 0.487 1.505 3.354-1.085 1.394 3.07-3.717 1.202 0.896 2.769-2.648 0.856-0.896-2.769-7.61 2.462c-0.688 0.222-1.142 0.52-1.363 0.893-0.228 0.375-0.239 0.878-0.035 1.509v0l0.324 1.004-2.781 0.571z" fill="#ffffff" data-fill-palette-color="primary"></path><path d="M14.582 123.379c0-1.47 1.192-2.662 2.662-2.661 1.47 0 2.662 1.192 2.662 2.661 0 1.47-1.192 2.662-2.662 2.662-1.47 0-2.662-1.192-2.662-2.662z" fill="#ffffff" data-fill-palette-color="primary"></path><path d="M231.631 123.379c0-1.47 1.192-2.662 2.661-2.661 1.47 0 2.662 1.192 2.662 2.661 0 1.47-1.192 2.662-2.662 2.662-1.47 0-2.662-1.192-2.661-2.662z" fill="#ffffff" data-fill-palette-color="primary"></path></g><g id="text-1"><path d="M15.025 155.448l20.496-6.759 1.052 3.19-9.302 3.068c0.473 0.269 0.918 0.551 1.337 0.844 0.427 0.298 0.816 0.615 1.168 0.952 0.345 0.339 0.654 0.706 0.929 1.102 0.275 0.396 0.491 0.835 0.65 1.318v0c0.277 0.841 0.337 1.657 0.181 2.449-0.151 0.79-0.461 1.523-0.931 2.199-0.47 0.676-1.065 1.27-1.788 1.782-0.73 0.508-1.535 0.907-2.412 1.197v0c-1.07 0.353-2.14 0.496-3.21 0.431-1.07-0.065-2.073-0.341-3.008-0.828-0.943-0.491-1.79-1.199-2.541-2.123-0.751-0.925-1.348-2.061-1.793-3.409v0c-0.234-0.711-0.438-1.535-0.609-2.473-0.166-0.939-0.239-1.92-0.219-2.94zM25.564 155.509l-7.465 2.462c-0.055 0.539-0.055 1.06 0.001 1.563 0.054 0.496 0.147 0.945 0.279 1.347v0c0.241 0.73 0.591 1.324 1.051 1.782 0.46 0.459 0.982 0.794 1.565 1.006 0.586 0.218 1.213 0.32 1.88 0.306 0.661-0.012 1.316-0.125 1.965-0.34v0c0.612-0.202 1.179-0.478 1.701-0.828 0.522-0.35 0.952-0.752 1.289-1.207 0.337-0.454 0.567-0.951 0.69-1.492 0.115-0.545 0.078-1.105-0.112-1.68v0c-0.159-0.482-0.455-0.974-0.887-1.476-0.433-0.502-1.085-0.982-1.957-1.443z" fill="#ffffff" data-fill-palette-color="primary"></path><path d="M29.429 182.909l-1.489 0.777c-0.441-0.225-0.863-0.5-1.268-0.826-0.396-0.322-0.767-0.675-1.115-1.059-0.35-0.375-0.666-0.769-0.946-1.181-0.281-0.412-0.524-0.814-0.729-1.206v0c-0.476-0.912-0.78-1.833-0.913-2.762-0.13-0.924-0.074-1.816 0.168-2.676 0.238-0.866 0.669-1.667 1.291-2.403 0.619-0.742 1.439-1.379 2.46-1.912v0c1.091-0.569 2.174-0.9 3.25-0.991 1.082-0.094 2.092 0.006 3.033 0.301 0.94 0.295 1.789 0.762 2.549 1.402 0.768 0.642 1.383 1.404 1.843 2.287v0c0.386 0.739 0.623 1.489 0.712 2.251 0.089 0.761 0.014 1.498-0.224 2.209-0.232 0.709-0.634 1.381-1.205 2.017-0.58 0.633-1.341 1.195-2.282 1.686v0c-0.231 0.12-0.481 0.24-0.749 0.358-0.266 0.109-0.535 0.206-0.808 0.29v0l-4.545-8.71c-0.664 0.346-1.188 0.77-1.572 1.272-0.387 0.496-0.64 1.046-0.758 1.651-0.118 0.605-0.109 1.254 0.025 1.948 0.137 0.685 0.394 1.388 0.771 2.109v0c0.108 0.208 0.242 0.443 0.401 0.705 0.162 0.268 0.347 0.546 0.556 0.834 0.215 0.285 0.451 0.569 0.709 0.852 0.249 0.281 0.528 0.54 0.835 0.777zM29.908 172.007l3.172 6.077c0.6-0.313 1.085-0.665 1.453-1.056 0.372-0.385 0.643-0.787 0.814-1.206 0.162-0.422 0.23-0.847 0.205-1.275-0.031-0.425-0.151-0.839-0.363-1.243v0c-0.235-0.45-0.543-0.822-0.923-1.115-0.387-0.29-0.815-0.493-1.286-0.607-0.474-0.12-0.972-0.146-1.495-0.079-0.532 0.065-1.057 0.232-1.577 0.504z" fill="#ffffff" data-fill-palette-color="primary"></path><path d="M33.586 194.059l17.181-14.084 2.13 2.597-7.651 6.272c0.451 0.068 0.93 0.164 1.436 0.288 0.497 0.123 0.99 0.278 1.48 0.466 0.49 0.187 0.959 0.426 1.408 0.715 0.448 0.29 0.845 0.646 1.191 1.069v0c0.425 0.519 0.711 1.067 0.857 1.646 0.155 0.58 0.181 1.165 0.076 1.756-0.104 0.582-0.334 1.158-0.691 1.729-0.357 0.571-0.835 1.102-1.435 1.592v0l-7.575 6.21-2.136-2.605 7.281-5.969c0.388-0.318 0.68-0.65 0.875-0.995 0.205-0.345 0.327-0.689 0.366-1.033 0.044-0.347 0.006-0.691-0.113-1.031-0.115-0.335-0.296-0.654-0.543-0.956v0c-0.433-0.529-0.98-0.918-1.64-1.168-0.66-0.25-1.409-0.436-2.249-0.556v0l-8.118 6.655z" fill="#ffffff" data-fill-palette-color="primary"></path><path d="M57.372 213.872l-1.105 1.264c-0.492-0.05-0.986-0.153-1.481-0.308-0.486-0.157-0.96-0.351-1.423-0.583-0.463-0.223-0.899-0.475-1.311-0.756-0.411-0.281-0.783-0.568-1.116-0.859v0c-0.775-0.677-1.392-1.424-1.854-2.243-0.456-0.814-0.728-1.665-0.815-2.554-0.092-0.893 0.018-1.796 0.33-2.707 0.308-0.916 0.84-1.807 1.599-2.675v0c0.81-0.926 1.699-1.628 2.668-2.104 0.974-0.481 1.952-0.754 2.935-0.82 0.983-0.066 1.944 0.061 2.884 0.38 0.949 0.319 1.798 0.806 2.548 1.462v0c0.627 0.548 1.121 1.161 1.48 1.838 0.359 0.677 0.557 1.391 0.594 2.141 0.041 0.745-0.089 1.517-0.391 2.317-0.311 0.801-0.815 1.6-1.514 2.399v0c-0.171 0.196-0.361 0.398-0.568 0.606-0.208 0.199-0.424 0.386-0.647 0.562v0l-7.397-6.464c-0.493 0.564-0.827 1.149-1.003 1.756-0.181 0.603-0.216 1.207-0.107 1.813 0.11 0.606 0.353 1.208 0.731 1.806 0.376 0.588 0.871 1.15 1.483 1.686v0c0.176 0.154 0.386 0.325 0.63 0.511 0.248 0.191 0.522 0.382 0.821 0.575 0.303 0.187 0.627 0.366 0.97 0.536 0.335 0.171 0.688 0.311 1.059 0.421zM53.861 203.54l5.162 4.511c0.446-0.51 0.769-1.014 0.971-1.512 0.207-0.494 0.313-0.967 0.319-1.419-0.003-0.452-0.093-0.873-0.271-1.262-0.183-0.385-0.446-0.727-0.789-1.027v0c-0.382-0.334-0.804-0.569-1.265-0.704-0.466-0.13-0.938-0.163-1.419-0.098-0.485 0.06-0.959 0.217-1.422 0.469-0.472 0.253-0.901 0.6-1.286 1.042z" fill="#ffffff" data-fill-palette-color="primary"></path><path d="M67.783 221.647v0c-0.315 0.047-0.688 0.1-1.118 0.16-0.436 0.056-0.895 0.081-1.377 0.076-0.488-0.008-0.982-0.067-1.484-0.176-0.507-0.113-0.985-0.312-1.436-0.597v0c-0.462-0.292-0.839-0.646-1.131-1.063-0.283-0.418-0.476-0.867-0.579-1.349-0.106-0.491-0.109-0.997-0.009-1.519 0.094-0.526 0.301-1.042 0.621-1.548v0c0.338-0.534 0.774-0.986 1.309-1.356 0.535-0.37 1.182-0.596 1.943-0.678 0.751-0.079 1.621 0.02 2.608 0.298 0.987 0.278 2.089 0.802 3.304 1.572v0l0.859 0.543 0.605-0.957c0.219-0.347 0.354-0.693 0.404-1.039 0.059-0.348 0.046-0.687-0.038-1.018-0.093-0.328-0.254-0.634-0.482-0.918-0.225-0.289-0.517-0.547-0.875-0.773v0c-0.286-0.181-0.61-0.34-0.97-0.475-0.361-0.136-0.735-0.245-1.122-0.329-0.39-0.077-0.784-0.13-1.182-0.158-0.393-0.025-0.766-0.019-1.121 0.018v0l-0.141-0.251 0.711-2.312c1.256 0.109 2.345 0.336 3.267 0.681 0.92 0.336 1.735 0.728 2.445 1.177v0c0.737 0.467 1.345 0.955 1.823 1.466 0.484 0.514 0.826 1.05 1.027 1.609 0.203 0.568 0.259 1.15 0.166 1.746-0.09 0.605-0.341 1.233-0.751 1.882v0l-3.635 5.743c-0.073 0.116-0.147 0.25-0.221 0.404-0.065 0.151-0.107 0.31-0.127 0.474-0.025 0.161-0.006 0.32 0.058 0.476 0.054 0.158 0.175 0.296 0.362 0.414v0c0.11 0.07 0.255 0.138 0.436 0.206 0.171 0.07 0.36 0.12 0.564 0.149v0l-0.888 1.403c-0.608 0.024-1.175-0.012-1.701-0.106-0.526-0.094-0.99-0.268-1.391-0.522v0c-0.308-0.195-0.541-0.423-0.699-0.685-0.152-0.258-0.245-0.532-0.277-0.822-0.032-0.29-0.025-0.594 0.021-0.911 0.049-0.308 0.123-0.62 0.222-0.935zM68.697 220.111l1.718-2.715-0.742-0.47c-0.809-0.512-1.498-0.871-2.069-1.078-0.568-0.198-1.05-0.283-1.444-0.255-0.4 0.024-0.731 0.138-0.992 0.343-0.255 0.208-0.478 0.464-0.67 0.767v0c-0.202 0.319-0.333 0.629-0.392 0.93-0.06 0.301-0.062 0.585-0.007 0.851 0.055 0.266 0.167 0.51 0.334 0.731 0.164 0.227 0.37 0.419 0.618 0.576v0c0.193 0.122 0.402 0.223 0.628 0.305 0.231 0.085 0.493 0.146 0.784 0.185 0.29 0.029 0.618 0.033 0.987 0.011 0.362-0.025 0.778-0.085 1.247-0.181z" fill="#ffffff" data-fill-palette-color="primary"></path><path d="M74.509 227.958l9.941-19.869 3.004 1.503-9.94 19.869z" fill="#ffffff" data-fill-palette-color="primary"></path><path d="M85.154 228.085l2.847-7.734-2.777-1.022 0.781-1.388c0.749 0.075 1.371 0.082 1.866 0.02 0.49-0.069 0.931-0.212 1.323-0.428 0.39-0.21 0.77-0.508 1.14-0.892 0.37-0.384 0.809-0.85 1.316-1.399v0l1.512 0.557-1.265 3.436 4.958 1.825-1.385 2.039-4.308-1.585-2.617 7.112c-0.155 0.422-0.226 0.801-0.211 1.14 0.017 0.332 0.104 0.631 0.262 0.897 0.159 0.266 0.378 0.5 0.658 0.701 0.288 0.196 0.634 0.369 1.038 0.517v0c0.379 0.139 0.77 0.245 1.173 0.317 0.406 0.066 0.8 0.097 1.184 0.092v0l-0.583 1.586c-0.741 0.185-1.485 0.255-2.231 0.209-0.746-0.046-1.462-0.195-2.146-0.446v0c-1.307-0.481-2.176-1.203-2.606-2.166-0.43-0.963-0.406-2.092 0.071-3.388z" fill="#ffffff" data-fill-palette-color="primary"></path><path d="M96.337 236l4.842-21.683 3.279 0.732-2.156 9.655c0.397-0.225 0.833-0.444 1.307-0.659 0.467-0.209 0.951-0.391 1.453-0.546 0.502-0.155 1.018-0.256 1.549-0.304 0.531-0.048 1.063-0.013 1.597 0.106v0c0.654 0.146 1.218 0.402 1.69 0.768 0.48 0.361 0.861 0.806 1.142 1.336 0.277 0.522 0.451 1.118 0.522 1.787 0.071 0.669 0.022 1.382-0.147 2.139v0l-2.135 9.559-3.288-0.734 2.051-9.188c0.109-0.489 0.134-0.931 0.076-1.324-0.051-0.398-0.167-0.744-0.348-1.038-0.18-0.3-0.421-0.548-0.725-0.743-0.297-0.193-0.636-0.332-1.018-0.417v0c-0.667-0.149-1.338-0.119-2.011 0.091-0.674 0.21-1.378 0.526-2.113 0.949v0l-2.288 10.246z" fill="#ffffff" data-fill-palette-color="primary"></path><path d="M118.646 239.478l-4.482-14.95 3.706 0.193 2.368 9.55 0.49 2.792 0.283 0.015 0.767-2.727 3.367-9.252 3.169 0.165-9.03 21.689-3.101-0.162 3.487-7.26z" fill="#ffffff" data-fill-palette-color="primary"></path><path d="M134.128 224.834l3.598-0.683 4.115 9.07 0.897 2.374 0.25-0.047 0.019-2.518 0.835-9.591 3.685-0.699 4.263 8.594 0.975 2.36 0.268-0.051-0.038-2.507 0.533-9.981 3.051-0.579-1.618 15.266-3.675 0.697-4.008-7.877-1.123-2.62-0.269 0.051-0.103 2.862-0.915 8.801-3.694 0.7z" fill="#ffffff" data-fill-palette-color="primary"></path><path d="M163.224 233.684l-4.72-13.918 3.191-1.082 4.72 13.918zM159.164 216.48v0c-0.284 0.096-0.558 0.138-0.824 0.124-0.259-0.015-0.502-0.07-0.727-0.166-0.227-0.102-0.42-0.246-0.58-0.432-0.168-0.191-0.294-0.412-0.38-0.665v0c-0.09-0.265-0.123-0.525-0.1-0.781 0.023-0.255 0.095-0.5 0.216-0.733 0.126-0.235 0.294-0.44 0.503-0.614 0.207-0.18 0.449-0.317 0.727-0.411v0c0.271-0.092 0.538-0.127 0.799-0.106 0.259 0.015 0.501 0.078 0.724 0.187 0.221 0.104 0.418 0.25 0.592 0.439 0.168 0.191 0.296 0.415 0.383 0.674v0c0.088 0.259 0.12 0.516 0.097 0.772-0.027 0.264-0.103 0.506-0.228 0.727-0.124 0.221-0.288 0.417-0.491 0.589-0.203 0.172-0.44 0.304-0.711 0.396z" fill="#ffffff" data-fill-palette-color="primary"></path><path d="M170.84 226.231l-3.475-7.474-2.683 1.248-0.433-1.533c0.582-0.479 1.025-0.915 1.331-1.308 0.297-0.396 0.507-0.81 0.629-1.24 0.126-0.425 0.183-0.904 0.172-1.437-0.011-0.533-0.032-1.173-0.063-1.92v0l1.461-0.679 1.544 3.321 4.791-2.228 0.468 2.421-4.162 1.935 3.195 6.871c0.189 0.407 0.409 0.725 0.659 0.954 0.247 0.223 0.521 0.372 0.822 0.447 0.301 0.076 0.621 0.085 0.96 0.028 0.343-0.066 0.709-0.19 1.098-0.371v0c0.366-0.17 0.717-0.373 1.053-0.608 0.333-0.241 0.633-0.499 0.9-0.774v0l0.713 1.532c-0.391 0.656-0.867 1.232-1.426 1.729-0.559 0.497-1.169 0.899-1.83 1.206v0c-1.263 0.587-2.388 0.694-3.373 0.319-0.985-0.375-1.769-1.188-2.351-2.439z" fill="#ffffff" data-fill-palette-color="primary"></path><path d="M184.336 223.889l-11.945-18.731 2.832-1.807 5.319 8.341c0.121-0.44 0.273-0.904 0.457-1.391 0.181-0.479 0.394-0.95 0.638-1.415 0.244-0.465 0.537-0.902 0.877-1.312 0.341-0.41 0.742-0.762 1.203-1.056v0c0.565-0.361 1.144-0.579 1.736-0.656 0.594-0.085 1.178-0.041 1.753 0.133 0.565 0.172 1.11 0.47 1.634 0.892 0.524 0.422 0.995 0.96 1.411 1.614v0l5.267 8.258-2.841 1.812-5.062-7.938c-0.27-0.423-0.564-0.752-0.884-0.988-0.318-0.245-0.645-0.407-0.982-0.485-0.34-0.085-0.685-0.088-1.037-0.011-0.346 0.074-0.684 0.216-1.014 0.427v0c-0.576 0.368-1.028 0.864-1.355 1.489-0.327 0.625-0.6 1.348-0.819 2.167v0l5.645 8.851z" fill="#ffffff" data-fill-palette-color="primary"></path><path d="M201.291 205.217l-6.941-6.926 2.373-2.378 6.567 6.553c0.332 0.331 0.68 0.586 1.044 0.765 0.364 0.179 0.725 0.287 1.084 0.324 0.359 0.027 0.707-0.017 1.043-0.133 0.336-0.125 0.642-0.325 0.917-0.601v0c0.235-0.235 0.425-0.505 0.573-0.809 0.147-0.304 0.259-0.624 0.337-0.96 0.087-0.336 0.14-0.684 0.158-1.043 0.023-0.354 0.027-0.709 0.012-1.063v0l-7.397-7.381 2.366-2.371 10.404 10.381-1.917 1.922-2.108-1.4c-0.018 0.451-0.05 0.93-0.095 1.437-0.041 0.502-0.119 1.004-0.233 1.505-0.119 0.497-0.289 0.976-0.51 1.437-0.225 0.465-0.524 0.884-0.896 1.258v0c-0.423 0.424-0.911 0.742-1.463 0.954-0.543 0.212-1.116 0.303-1.719 0.272-0.594-0.032-1.202-0.187-1.823-0.468-0.617-0.285-1.209-0.71-1.776-1.275z" fill="#ffffff" data-fill-palette-color="primary"></path><path d="M216.18 195.301l-1.683-1.967 0.023-0.298c0.369-0.174 0.732-0.372 1.089-0.595 0.36-0.228 0.696-0.467 1.006-0.716 0.32-0.25 0.61-0.51 0.872-0.778 0.266-0.265 0.493-0.526 0.681-0.784v0c0.499-0.683 0.747-1.321 0.744-1.912-0.003-0.591-0.226-1.048-0.668-1.371v0c-0.3-0.219-0.612-0.31-0.937-0.273-0.321 0.031-0.656 0.142-1.003 0.331-0.344 0.184-0.703 0.422-1.077 0.712-0.37 0.286-0.755 0.581-1.155 0.886-0.396 0.299-0.8 0.576-1.213 0.832-0.421 0.257-0.853 0.445-1.296 0.565-0.439 0.115-0.889 0.141-1.35 0.077-0.458-0.069-0.929-0.279-1.413-0.633v0c-0.547-0.399-0.973-0.892-1.278-1.478-0.309-0.581-0.476-1.219-0.5-1.914-0.028-0.69 0.085-1.418 0.338-2.184 0.252-0.775 0.66-1.549 1.225-2.322v0c0.142-0.194 0.315-0.415 0.519-0.661 0.204-0.246 0.425-0.499 0.664-0.76 0.24-0.252 0.491-0.5 0.751-0.746 0.26-0.245 0.52-0.463 0.779-0.652v0l1.647 1.966-0.036 0.348c-0.276 0.145-0.549 0.316-0.822 0.512-0.272 0.196-0.526 0.406-0.762 0.629-0.236 0.223-0.455 0.446-0.657 0.668-0.203 0.223-0.372 0.426-0.507 0.61v0c-0.48 0.657-0.725 1.268-0.735 1.834-0.011 0.556 0.204 0.996 0.646 1.318v0c0.305 0.223 0.622 0.318 0.953 0.285 0.33-0.033 0.669-0.144 1.017-0.333 0.348-0.189 0.708-0.434 1.081-0.734 0.378-0.296 0.765-0.594 1.161-0.894 0.396-0.299 0.804-0.582 1.223-0.847 0.42-0.266 0.849-0.456 1.288-0.571 0.443-0.12 0.897-0.147 1.365-0.08 0.467 0.067 0.948 0.281 1.441 0.643v0c0.552 0.403 0.983 0.9 1.294 1.489 0.302 0.591 0.469 1.234 0.503 1.928 0.03 0.699-0.082 1.431-0.336 2.198-0.253 0.766-0.655 1.525-1.204 2.276v0c-0.453 0.62-0.999 1.229-1.637 1.828-0.644 0.594-1.324 1.117-2.041 1.568z" fill="#ffffff" data-fill-palette-color="primary"></path></g></svg></g></svg></g></svg></g><g></g></svg></g></svg></g><defs></defs></svg><rect width="246.95280000000002" height="246.95280000000002" fill="none" stroke="none" visibility="hidden"></rect></g></svg></g></svg>