<svg xmlns="http://www.w3.org/2000/svg" viewBox="0 0 1920 1080"><g transform="
          rotate(91 960 540) 
          translate(-763.1610432466998 -429.2780868262686)
          scale(1.7949594200486456)
        "><rect width="1920" height="1080" fill="rgb(168, 139, 103)"></rect><g transform="translate(0, 0)"><path fill="rgb(149, 137, 90)" fill-opacity="1" d="M0,66.174L35.556,61.068C71.111,55.963,142.222,45.753,213.333,40.66C284.444,35.567,355.556,35.591,426.667,32.226C497.778,28.86,568.889,22.104,640,21.894C711.111,21.684,782.222,28.02,853.333,32.69C924.444,37.359,995.556,40.361,1066.667,43.576C1137.778,46.79,1208.889,50.217,1280,56.305C1351.111,62.394,1422.222,71.145,1493.333,70.117C1564.444,69.089,1635.556,58.281,1706.667,52.143C1777.778,46.004,1848.889,44.534,1884.444,43.799L1920,43.064L1920,1080L1884.444,1080C1848.889,1080,1777.778,1080,1706.667,1080C1635.556,1080,1564.444,1080,1493.333,1080C1422.222,1080,1351.111,1080,1280,1080C1208.889,1080,1137.778,1080,1066.667,1080C995.556,1080,924.444,1080,853.333,1080C782.222,1080,711.111,1080,640,1080C568.889,1080,497.778,1080,426.667,1080C355.556,1080,284.444,1080,213.333,1080C142.222,1080,71.111,1080,35.556,1080L0,1080Z"></path></g><g transform="translate(0, 90)"><path fill="rgb(130, 134, 77)" fill-opacity="1" d="M0,86.641L35.556,76.643C71.111,66.645,142.222,46.648,213.333,45.66C284.444,44.673,355.556,62.693,426.667,70.442C497.778,78.191,568.889,75.669,640,76.758C711.111,77.847,782.222,82.549,853.333,75.651C924.444,68.752,995.556,50.253,1066.667,48.086C1137.778,45.918,1208.889,60.08,1280,59.623C1351.111,59.167,1422.222,44.09,1493.333,45.874C1564.444,47.658,1635.556,66.303,1706.667,66.043C1777.778,65.782,1848.889,46.616,1884.444,37.033L1920,27.45L1920,990L1884.444,990C1848.889,990,1777.778,990,1706.667,990C1635.556,990,1564.444,990,1493.333,990C1422.222,990,1351.111,990,1280,990C1208.889,990,1137.778,990,1066.667,990C995.556,990,924.444,990,853.333,990C782.222,990,711.111,990,640,990C568.889,990,497.778,990,426.667,990C355.556,990,284.444,990,213.333,990C142.222,990,71.111,990,35.556,990L0,990Z"></path></g><g transform="translate(0, 180)"><path fill="rgb(112, 132, 65)" fill-opacity="1" d="M0,60.462L35.556,58.265C71.111,56.068,142.222,51.674,213.333,42.826C284.444,33.977,355.556,20.674,426.667,17.386C497.778,14.098,568.889,20.825,640,29.143C711.111,37.462,782.222,47.372,853.333,55.609C924.444,63.846,995.556,70.411,1066.667,67.095C1137.778,63.779,1208.889,50.583,1280,45.361C1351.111,40.139,1422.222,42.892,1493.333,41.601C1564.444,40.309,1635.556,34.973,1706.667,38.633C1777.778,42.294,1848.889,54.951,1884.444,61.28L1920,67.609L1920,900L1884.444,900C1848.889,900,1777.778,900,1706.667,900C1635.556,900,1564.444,900,1493.333,900C1422.222,900,1351.111,900,1280,900C1208.889,900,1137.778,900,1066.667,900C995.556,900,924.444,900,853.333,900C782.222,900,711.111,900,640,900C568.889,900,497.778,900,426.667,900C355.556,900,284.444,900,213.333,900C142.222,900,71.111,900,35.556,900L0,900Z"></path></g><g transform="translate(0, 270)"><path fill="rgb(94, 128, 54)" fill-opacity="1" d="M0,1.259L35.556,8.356C71.111,15.453,142.222,29.646,213.333,38.755C284.444,47.863,355.556,51.886,426.667,49.847C497.778,47.808,568.889,39.706,640,30.475C711.111,21.244,782.222,10.883,853.333,16.419C924.444,21.955,995.556,43.388,1066.667,45.352C1137.778,47.315,1208.889,29.809,1280,26.289C1351.111,22.769,1422.222,33.235,1493.333,35.816C1564.444,38.396,1635.556,33.091,1706.667,38.944C1777.778,44.798,1848.889,61.81,1884.444,70.316L1920,78.822L1920,810L1884.444,810C1848.889,810,1777.778,810,1706.667,810C1635.556,810,1564.444,810,1493.333,810C1422.222,810,1351.111,810,1280,810C1208.889,810,1137.778,810,1066.667,810C995.556,810,924.444,810,853.333,810C782.222,810,711.111,810,640,810C568.889,810,497.778,810,426.667,810C355.556,810,284.444,810,213.333,810C142.222,810,71.111,810,35.556,810L0,810Z"></path></g><g transform="translate(0, 360)"><path fill="rgb(78, 125, 44)" fill-opacity="1" d="M0,76.844L35.556,65.624C71.111,54.403,142.222,31.962,213.333,33.779C284.444,35.597,355.556,61.673,426.667,69.206C497.778,76.739,568.889,65.728,640,56.443C711.111,47.159,782.222,39.599,853.333,41.207C924.444,42.816,995.556,53.592,1066.667,51.646C1137.778,49.701,1208.889,35.034,1280,32.528C1351.111,30.023,1422.222,39.678,1493.333,37.844C1564.444,36.009,1635.556,22.684,1706.667,29.447C1777.778,36.209,1848.889,63.06,1884.444,76.485L1920,89.91L1920,720L1884.444,720C1848.889,720,1777.778,720,1706.667,720C1635.556,720,1564.444,720,1493.333,720C1422.222,720,1351.111,720,1280,720C1208.889,720,1137.778,720,1066.667,720C995.556,720,924.444,720,853.333,720C782.222,720,711.111,720,640,720C568.889,720,497.778,720,426.667,720C355.556,720,284.444,720,213.333,720C142.222,720,71.111,720,35.556,720L0,720Z"></path></g><g transform="translate(0, 450)"><path fill="rgb(64, 121, 35)" fill-opacity="1" d="M0,25.376L35.556,28.635C71.111,31.895,142.222,38.415,213.333,34.805C284.444,31.195,355.556,17.456,426.667,16.275C497.778,15.094,568.889,26.471,640,35.565C711.111,44.659,782.222,51.47,853.333,59.021C924.444,66.572,995.556,74.863,1066.667,68.967C1137.778,63.071,1208.889,42.987,1280,40.462C1351.111,37.937,1422.222,52.971,1493.333,59.096C1564.444,65.221,1635.556,62.437,1706.667,56.506C1777.778,50.576,1848.889,41.5,1884.444,36.962L1920,32.424L1920,630L1884.444,630C1848.889,630,1777.778,630,1706.667,630C1635.556,630,1564.444,630,1493.333,630C1422.222,630,1351.111,630,1280,630C1208.889,630,1137.778,630,1066.667,630C995.556,630,924.444,630,853.333,630C782.222,630,711.111,630,640,630C568.889,630,497.778,630,426.667,630C355.556,630,284.444,630,213.333,630C142.222,630,71.111,630,35.556,630L0,630Z"></path></g><g transform="translate(0, 540)"><path fill="rgb(51, 116, 28)" fill-opacity="1" d="M0,37.496L35.556,33.821C71.111,30.147,142.222,22.798,213.333,26.176C284.444,29.554,355.556,43.659,426.667,43.552C497.778,43.446,568.889,29.127,640,19.67C711.111,10.213,782.222,5.618,853.333,8.507C924.444,11.396,995.556,21.769,1066.667,34.324C1137.778,46.879,1208.889,61.617,1280,64.011C1351.111,66.405,1422.222,56.454,1493.333,46.994C1564.444,37.533,1635.556,28.563,1706.667,28.874C1777.778,29.186,1848.889,38.778,1884.444,43.575L1920,48.371L1920,540L1884.444,540C1848.889,540,1777.778,540,1706.667,540C1635.556,540,1564.444,540,1493.333,540C1422.222,540,1351.111,540,1280,540C1208.889,540,1137.778,540,1066.667,540C995.556,540,924.444,540,853.333,540C782.222,540,711.111,540,640,540C568.889,540,497.778,540,426.667,540C355.556,540,284.444,540,213.333,540C142.222,540,71.111,540,35.556,540L0,540Z"></path></g><g transform="translate(0, 630)"><path fill="rgb(39, 111, 22)" fill-opacity="1" d="M0,67.056L35.556,56.883C71.111,46.709,142.222,26.363,213.333,24.354C284.444,22.345,355.556,38.673,426.667,43.137C497.778,47.6,568.889,40.199,640,32.123C711.111,24.046,782.222,15.294,853.333,14.604C924.444,13.915,995.556,21.289,1066.667,33.403C1137.778,45.517,1208.889,62.372,1280,65.966C1351.111,69.561,1422.222,59.895,1493.333,53.452C1564.444,47.01,1635.556,43.791,1706.667,46.09C1777.778,48.388,1848.889,56.203,1884.444,60.111L1920,64.019L1920,450L1884.444,450C1848.889,450,1777.778,450,1706.667,450C1635.556,450,1564.444,450,1493.333,450C1422.222,450,1351.111,450,1280,450C1208.889,450,1137.778,450,1066.667,450C995.556,450,924.444,450,853.333,450C782.222,450,711.111,450,640,450C568.889,450,497.778,450,426.667,450C355.556,450,284.444,450,213.333,450C142.222,450,71.111,450,35.556,450L0,450Z"></path></g><g transform="translate(0, 720)"><path fill="rgb(29, 106, 17)" fill-opacity="1" d="M0,66.633L35.556,61.13C71.111,55.628,142.222,44.623,213.333,34.912C284.444,25.201,355.556,16.784,426.667,16.652C497.778,16.52,568.889,24.673,640,27.449C711.111,30.224,782.222,27.623,853.333,35.224C924.444,42.826,995.556,60.63,1066.667,66.381C1137.778,72.132,1208.889,65.828,1280,53.568C1351.111,41.308,1422.222,23.091,1493.333,24.113C1564.444,25.135,1635.556,45.396,1706.667,54.734C1777.778,64.072,1848.889,62.487,1884.444,61.694L1920,60.901L1920,360L1884.444,360C1848.889,360,1777.778,360,1706.667,360C1635.556,360,1564.444,360,1493.333,360C1422.222,360,1351.111,360,1280,360C1208.889,360,1137.778,360,1066.667,360C995.556,360,924.444,360,853.333,360C782.222,360,711.111,360,640,360C568.889,360,497.778,360,426.667,360C355.556,360,284.444,360,213.333,360C142.222,360,71.111,360,35.556,360L0,360Z"></path></g><g transform="translate(0, 810)"><path fill="rgb(19, 100, 13)" fill-opacity="1" d="M0,20.45L35.556,21.433C71.111,22.417,142.222,24.384,213.333,34.898C284.444,45.411,355.556,64.47,426.667,69.497C497.778,74.524,568.889,65.518,640,64.931C711.111,64.344,782.222,72.176,853.333,74.83C924.444,77.485,995.556,74.961,1066.667,72.547C1137.778,70.133,1208.889,67.829,1280,57.028C1351.111,46.228,1422.222,26.93,1493.333,16.896C1564.444,6.861,1635.556,6.088,1706.667,8.537C1777.778,10.986,1848.889,16.656,1884.444,19.491L1920,22.326L1920,270L1884.444,270C1848.889,270,1777.778,270,1706.667,270C1635.556,270,1564.444,270,1493.333,270C1422.222,270,1351.111,270,1280,270C1208.889,270,1137.778,270,1066.667,270C995.556,270,924.444,270,853.333,270C782.222,270,711.111,270,640,270C568.889,270,497.778,270,426.667,270C355.556,270,284.444,270,213.333,270C142.222,270,71.111,270,35.556,270L0,270Z"></path></g><g transform="translate(0, 900)"><path fill="rgb(11, 93, 10)" fill-opacity="1" d="M0,7.906L35.556,14.62C71.111,21.334,142.222,34.762,213.333,33.8C284.444,32.837,355.556,17.485,426.667,14.573C497.778,11.66,568.889,21.188,640,30.591C711.111,39.993,782.222,49.271,853.333,55.167C924.444,61.063,995.556,63.577,1066.667,58.498C1137.778,53.419,1208.889,40.746,1280,39.807C1351.111,38.868,1422.222,49.663,1493.333,47.061C1564.444,44.459,1635.556,28.461,1706.667,28.093C1777.778,27.724,1848.889,42.986,1884.444,50.617L1920,58.247L1920,180L1884.444,180C1848.889,180,1777.778,180,1706.667,180C1635.556,180,1564.444,180,1493.333,180C1422.222,180,1351.111,180,1280,180C1208.889,180,1137.778,180,1066.667,180C995.556,180,924.444,180,853.333,180C782.222,180,711.111,180,640,180C568.889,180,497.778,180,426.667,180C355.556,180,284.444,180,213.333,180C142.222,180,71.111,180,35.556,180L0,180Z"></path></g><g transform="translate(0, 990)"><path fill="rgb(2, 87, 7)" fill-opacity="1" d="M0,62.797L35.556,66.557C71.111,70.316,142.222,77.835,213.333,76.487C284.444,75.139,355.556,64.923,426.667,62.876C497.778,60.829,568.889,66.95,640,61.551C711.111,56.153,782.222,39.235,853.333,37.247C924.444,35.26,995.556,48.203,1066.667,57.72C1137.778,67.238,1208.889,73.33,1280,76.588C1351.111,79.846,1422.222,80.269,1493.333,75.333C1564.444,70.396,1635.556,60.1,1706.667,51.483C1777.778,42.865,1848.889,35.926,1884.444,32.456L1920,28.987L1920,90L1884.444,90C1848.889,90,1777.778,90,1706.667,90C1635.556,90,1564.444,90,1493.333,90C1422.222,90,1351.111,90,1280,90C1208.889,90,1137.778,90,1066.667,90C995.556,90,924.444,90,853.333,90C782.222,90,711.111,90,640,90C568.889,90,497.778,90,426.667,90C355.556,90,284.444,90,213.333,90C142.222,90,71.111,90,35.556,90L0,90Z"></path></g></g></svg>